<svg width="32" height="32" viewBox="0 0 32 32" fill="none" xmlns="http://www.w3.org/2000/svg">
<g clip-path="url(#clip0_5_2856)">
<path d="M16 32C24.8366 32 32 24.8366 32 16C32 7.16344 24.8366 0 16 0C7.16344 0 0 7.16344 0 16C0 24.8366 7.16344 32 16 32Z" fill="#E84142"/>
<path d="M21.6441 16.4158C22.1984 15.4583 23.0929 15.4583 23.6472 16.4158L27.0992 22.4756C27.6535 23.4331 27.2 24.2142 26.0913 24.2142H19.137C18.0409 24.2142 17.5874 23.4331 18.1291 22.4756L21.6441 16.4158ZM14.9669 4.74962C15.5213 3.79214 16.4031 3.79214 16.9575 4.74962L17.726 6.13545L19.5402 9.32285C19.9811 10.2299 19.9811 11.3008 19.5402 12.2079L13.4551 22.7528C12.9008 23.6095 11.9811 24.1512 10.9606 24.2142H5.90866C4.8 24.2142 4.34646 23.4457 4.90079 22.4756L14.9669 4.74962Z" fill="white"/>
</g>
<defs>
<clipPath id="clip0_5_2856">
<rect width="32" height="32" fill="white"/>
</clipPath>
</defs>
</svg>
