<svg width="32" height="32" viewBox="0 0 32 32" fill="none" xmlns="http://www.w3.org/2000/svg">
<g clip-path="url(#clip0_5_2174)">
<path d="M16.0005 32.0039C24.837 32.0039 32.0005 24.8405 32.0005 16.0039C32.0005 7.16735 24.837 0.00390625 16.0005 0.00390625C7.16393 0.00390625 0.000488281 7.16735 0.000488281 16.0039C0.000488281 24.8405 7.16393 32.0039 16.0005 32.0039Z" fill="#F3BA2F"/>
<path d="M12.1165 14.4079L16.0005 10.5239L19.8865 14.4099L22.1465 12.1499L16.0005 6.00391L9.85649 12.1479L12.1165 14.4079ZM6.00049 16.0039L8.26049 13.7439L10.5205 16.0039L8.26049 18.2639L6.00049 16.0039ZM12.1165 17.5999L16.0005 21.4839L19.8865 17.5979L22.1465 19.8569L16.0005 26.0039L9.85649 19.8599L9.85349 19.8569L12.1165 17.5999ZM21.4805 16.0039L23.7405 13.7439L26.0005 16.0039L23.7405 18.2639L21.4805 16.0039ZM18.2925 16.0019H18.2945V16.0039L16.0005 18.2979L13.7095 16.0079L13.7055 16.0039L13.7095 16.0009L14.1105 15.5989L14.3055 15.4039L16.0005 13.7099L18.2935 16.0029L18.2925 16.0019Z" fill="white"/>
</g>
<defs>
<clipPath id="clip0_5_2174">
<rect width="32" height="32" fill="white" transform="translate(0.000488281 0.00390625)"/>
</clipPath>
</defs>
</svg>
