<svg width="32" height="32" viewBox="0 0 32 32" fill="none" xmlns="http://www.w3.org/2000/svg">
<g clip-path="url(#clip0_5_2134)">
<path d="M16 32.0049C24.8366 32.0049 32 24.8414 32 16.0049C32 7.16833 24.8366 0.00488281 16 0.00488281C7.16344 0.00488281 0 7.16833 0 16.0049C0 24.8414 7.16344 32.0049 16 32.0049Z" fill="#F7931A"/>
<path d="M23.032 14.0249C23.346 11.9289 21.749 10.8019 19.567 10.0499L20.275 7.20988L18.547 6.77988L17.857 9.54488C17.403 9.43088 16.937 9.32488 16.472 9.21888L17.167 6.43588L15.439 6.00488L14.731 8.84388C14.355 8.75788 13.985 8.67388 13.627 8.58388L13.629 8.57488L11.245 7.97988L10.785 9.82588C10.785 9.82588 12.068 10.1199 12.041 10.1379C12.741 10.3129 12.867 10.7759 12.846 11.1439L12.04 14.3789C12.088 14.3909 12.15 14.4089 12.22 14.4359L12.037 14.3909L10.907 18.9229C10.821 19.1349 10.604 19.4539 10.114 19.3329C10.132 19.3579 8.858 19.0199 8.858 19.0199L8 20.9979L10.25 21.5589C10.668 21.6639 11.078 21.7739 11.481 21.8769L10.766 24.7489L12.493 25.1789L13.201 22.3389C13.673 22.4659 14.131 22.5839 14.579 22.6959L13.873 25.5239L15.601 25.9539L16.316 23.0879C19.264 23.6459 21.48 23.4209 22.413 20.7549C23.165 18.6089 22.376 17.3699 20.825 16.5629C21.955 16.3029 22.805 15.5599 23.032 14.0249ZM19.082 19.5629C18.549 21.7099 14.934 20.5489 13.762 20.2579L14.712 16.4529C15.884 16.7459 19.641 17.3249 19.082 19.5629ZM19.617 13.9939C19.13 15.9469 16.122 14.9539 15.147 14.7109L16.007 11.2609C16.982 11.5039 20.125 11.9569 19.617 13.9939Z" fill="white"/>
</g>
<defs>
<clipPath id="clip0_5_2134">
<rect width="32" height="32" fill="white" transform="translate(0 0.00488281)"/>
</clipPath>
</defs>
</svg>
