<svg width="32" height="32" viewBox="0 0 32 32" fill="none" xmlns="http://www.w3.org/2000/svg">
<circle cx="16" cy="16" r="16" fill="black"/>
<g clip-path="url(#clip0_482_1192)">
<path d="M10.0862 19.4485C10.2009 19.333 10.3585 19.2656 10.5258 19.2656H25.6895C25.9666 19.2656 26.1051 19.6025 25.9092 19.7998L22.9137 22.8171C22.7991 22.9326 22.6414 23 22.4742 23H7.31052C7.03343 23 6.89488 22.6631 7.09076 22.4658L10.0862 19.4485Z" fill="url(#paint0_linear_482_1192)"/>
<path d="M10.0862 8.18287C10.2057 8.06737 10.3633 8 10.5258 8H25.6895C25.9666 8 26.1051 8.33686 25.9092 8.53417L22.9137 11.5515C22.7991 11.667 22.6414 11.7344 22.4742 11.7344H7.31052C7.03343 11.7344 6.89488 11.3975 7.09076 11.2002L10.0862 8.18287Z" fill="url(#paint1_linear_482_1192)"/>
<path d="M22.9137 13.7795C22.7991 13.6641 22.6414 13.5967 22.4742 13.5967H7.31052C7.03343 13.5967 6.89488 13.9335 7.09076 14.1308L10.0862 17.1482C10.2009 17.2637 10.3585 17.331 10.5258 17.331H25.6895C25.9666 17.331 26.1051 16.9942 25.9092 16.7969L22.9137 13.7795Z" fill="url(#paint2_linear_482_1192)"/>
</g>
<defs>
<linearGradient id="paint0_linear_482_1192" x1="24.2409" y1="6.19752" x2="13.626" y2="26.382" gradientUnits="userSpaceOnUse">
<stop stop-color="#00FFA3"/>
<stop offset="1" stop-color="#DC1FFF"/>
</linearGradient>
<linearGradient id="paint1_linear_482_1192" x1="19.6521" y1="3.78434" x2="9.03727" y2="23.9688" gradientUnits="userSpaceOnUse">
<stop stop-color="#00FFA3"/>
<stop offset="1" stop-color="#DC1FFF"/>
</linearGradient>
<linearGradient id="paint2_linear_482_1192" x1="21.9319" y1="4.98321" x2="11.317" y2="25.1677" gradientUnits="userSpaceOnUse">
<stop stop-color="#00FFA3"/>
<stop offset="1" stop-color="#DC1FFF"/>
</linearGradient>
<clipPath id="clip0_482_1192">
<rect width="19" height="15" fill="white" transform="translate(7 8)"/>
</clipPath>
</defs>
</svg>
