<svg width="443" height="436" viewBox="0 0 443 436" fill="none" xmlns="http://www.w3.org/2000/svg">
<path d="M368.418 376.208C377.872 306.452 384.388 242.584 386.506 230.296C389.046 215.589 391.032 200.757 377.95 191.933C358.052 178.526 281.573 188.086 197.139 172.497C136.687 161.336 107.914 141.226 87.2212 155.593C78.8572 161.403 76.2524 169.37 74.9385 179.378C74.9085 179.609 64.5748 306.198 64.5055 354.465C64.5055 371.322 64.1868 389.334 79.8733 393.312C99.1072 396.085 118.531 397.329 137.961 397.03C151.205 396.834 153.906 396.261 166.596 396.61C166.826 396.61 213.934 398.711 214.165 398.753C240.49 403.436 247.113 412.283 305.43 427.156C316.258 429.927 334.438 436.349 344.349 434.155C362.525 430.128 365.568 397.22 368.418 376.208Z" fill="white"/>
<path d="M65.1382 379.468L69.0292 378.369C62.8936 355.665 75.5296 228.838 77.8873 195.918C79.0742 179.327 78.744 161.802 95.0332 156.618C111.708 151.307 133.179 161.467 160.846 168.951C246.397 192.104 343.989 185.7 367.081 192.334C380.936 196.316 384.737 205.312 383.185 219.703C382.218 228.709 383.55 213.023 375.796 278.043C358.195 425.502 361.918 437.609 323.162 427.534C242.617 406.622 255.634 405.883 227.997 397.946C222.782 396.265 217.385 395.21 211.921 394.806C196.765 394.734 181.594 393.353 166.676 393.053C152.59 392.769 148.295 393.494 137.908 393.686C114.493 394.113 83.8358 391.656 79.132 390.187C73.576 388.453 70.6433 383.939 69.0292 378.369L65.1382 379.468C67.4982 387.908 72.4237 393.771 81.2449 395C104.749 398.26 128.511 399.272 152.207 398.02C172.602 397.341 190.078 399.828 213.611 400.098C240.188 404.825 246.489 413.894 305.081 428.534C317.835 431.721 338.38 440.025 349.628 433.665C366.684 424.024 368.593 385.65 372.572 354.392C372.605 354.134 390.161 215.309 389.61 209.813C387.513 189.007 369.462 184.559 348.577 183.546C270.683 179.765 213.897 179.366 145.457 158.375C125.016 152.087 102.215 142.765 84.9696 155.456C71.3038 165.518 73.3335 184.287 71.2553 211.455C69.3271 236.644 58.6216 356.127 65.1382 379.468Z" fill="#652C7D"/>
<path d="M97.1808 134.282C101.993 140.401 106.588 142.636 117.04 146.95C124.085 149.89 141.439 155.743 148.986 154.709C196.447 148.19 213.248 76.0596 186.979 57.7384C183.229 55.1243 167.173 49.7 164.196 48.7625C155.943 46.1623 148.473 44.375 140.04 45.7051C97.4671 52.4572 78.7394 110.82 97.1808 134.282Z" fill="white"/>
<path d="M199.626 77.0702C195.551 57.1649 184.898 54.6963 175.359 51.1609C165.487 47.5147 153.068 43.0325 142.541 43.9677C95.98 49.4359 76.1046 113.752 97.8758 137.193C103.917 144.947 127.736 152.84 138.07 155.05C175.493 163.054 207.069 115.225 199.626 77.0702ZM182.848 76.8532C189.013 77.2942 188.191 77.0517 195.16 80.063C196.264 87.189 196.058 94.4564 194.553 101.509C184.284 100.841 186.45 99.6612 180.395 97.8138C182.371 91.0116 183.2 83.9277 182.848 76.8532ZM194.465 76.4329C187.134 75.971 187.653 75.0474 182.425 73.0106C181.634 66.7552 179.038 60.8655 174.955 56.061C182.254 58.8483 190.775 60.5686 194.465 76.4329ZM100.968 134.281C82.0485 114.477 96.4418 61.684 133.331 50.288C145.201 46.3093 155.14 48.8332 167.953 53.4401C189.93 68.8494 178.102 107.757 160.866 128.882C150.865 140.961 139.853 147.136 124.381 146.397C118.666 144.425 104.674 139.059 100.968 134.281ZM132.015 148.76C138.227 148.179 144.233 146.227 149.6 143.044C154.195 144.395 155.996 143.169 162.834 147.023C150.773 153.166 143.499 151.889 132.015 148.76ZM166.596 144.88C159.712 143.213 160.679 144.524 153.288 140.516C158.697 136.253 163.427 131.191 167.314 125.506C167.124 126.298 172.38 126.03 176.225 127.011C178.308 127.694 180.338 128.528 182.298 129.508C178.132 135.62 172.795 140.845 166.596 144.88ZM184.395 126.346C173.475 124.922 178.735 126.171 169.434 122.328C173.551 115.859 176.85 108.903 179.255 101.622C185.36 102.776 184.06 100.622 193.791 104.753C191.752 112.379 188.585 119.657 184.395 126.346Z" fill="#652C7D"/>
<path d="M119.864 139.076C151.537 146.113 185.838 90.2783 166.215 62.166C157.225 49.1836 129.953 48.701 111.221 76.453C109.356 79.0153 107.863 81.828 106.785 84.8078C107.577 85.2396 113.578 70.6962 130.946 60.4433C141.582 54.3147 157.634 54.3955 163.848 63.8401C175.869 81.501 164.612 110.507 148.838 125.805C123.367 150.595 92.9272 131.047 103.552 94.0815C105.099 88.8812 108.401 81.4294 105.233 87.2717C94.1488 107.639 99.2383 134.86 119.864 139.076Z" fill="#652C7D"/>
<path d="M138.656 100.219C142.351 100.314 146.905 101.755 149.221 99.0484C152.288 81.3922 153.126 76.2565 152.93 64.1793C135.731 76.9285 138.271 75.2035 127.665 85.4956C127.863 89.6809 129.215 93.7297 131.572 97.1941C132.448 98.1996 133.541 98.9939 134.768 99.5178C135.995 100.042 137.324 100.281 138.656 100.219ZM149.577 70.8691C149.406 76.7506 148.884 81.055 146.113 97.2172C144.194 97.3003 142.27 97.2172 140.365 96.9678C138.197 96.7368 135.622 96.8892 134.262 95.1204C132.596 92.6285 131.54 89.7788 131.182 86.8026C136.771 80.8957 142.933 75.5583 149.577 70.8691Z" fill="#652C7D"/>
<path d="M126.141 92.5028L124.249 88.9951C118.245 107.783 113.606 116.05 115.26 124.271C115.634 125.559 115.34 125.259 116.465 125.656C119.594 126.785 140.091 112.549 144.827 107.596C145.337 107.062 145.406 106.942 147.522 104.301C143.335 104.104 142.501 104.033 139.539 104.086C125.538 104.337 130.02 99.7145 126.141 92.5028ZM137.026 107.473C141.34 107.619 141.227 106.238 133.576 112.413C128.678 115.858 123.596 119.033 118.352 121.924C118.389 117.619 119.235 113.358 120.846 109.365C122.577 104.118 122.924 102.144 124.54 98.2804C126.291 104.693 128.122 107.162 137.026 107.473Z" fill="#652C7D"/>
<path d="M325.074 67.4437C337.098 50.2655 332.184 43.2293 328.538 36.8744C323.359 27.8685 318.057 18.3499 309.002 14.1772C275.715 -1.15594 220.848 35.8838 220.991 63.6335C221.684 73.6162 233.26 92.7826 240.772 98.2924C257.461 110.543 302.37 99.5463 325.074 67.4437Z" fill="white"/>
<path d="M334.009 46.7028C333.436 42.9044 331.977 39.294 329.75 36.1636C324.864 27.675 318.666 16.7224 309.568 12.9238C277.022 -2.72805 215.906 35.233 219.86 66.278C220.784 73.4689 228.524 87.241 235.793 95.4872C243.465 104.248 256.26 105.742 267.748 104.204C304.169 98.8494 335.798 65.5922 334.009 46.7028ZM307.903 16.5076C314.216 19.2394 319.038 26.3033 322.592 32.238C328.845 61.9021 258.484 103.574 230.956 81.812C228.221 77.3754 225.964 72.6623 224.22 67.7513C215.844 41.7865 275.232 0.206951 307.903 16.5076ZM234.198 86.7076C239.286 89.5669 245.017 91.0884 250.854 91.1297C253.47 94.6674 254.907 94.3626 257.017 100.258C243.642 99.5029 239.077 93.4966 234.198 86.7076ZM260.495 100.332C256.821 95.7135 256.858 96.9258 254.574 90.9958C261.301 90.3262 267.909 88.7645 274.223 86.3519C276.796 89.631 277.943 88.1624 281.717 95.9144C274.957 98.6202 267.773 100.117 260.495 100.332ZM284.756 94.7066C283.261 93.3942 281.851 91.9874 280.537 90.4947C279.438 88.7445 278.453 86.9249 277.59 85.0472C284.883 82.0397 291.856 78.3086 298.405 73.9099C302.391 78.1219 302.264 75.8404 305.878 82.6711C299.348 87.5184 292.255 91.5611 284.756 94.7066ZM308.178 80.8907C302.446 76.0413 304.587 76.8449 301.322 71.864C307.271 67.6579 312.618 62.6601 317.216 57.0088C319.968 58.9367 322.063 61.6614 323.22 64.8163C319.033 70.8915 313.963 76.3107 308.178 80.8907ZM324.92 62.1861C320.855 58.7477 321.703 58.8539 319.204 54.3117C322.924 49.3342 325.093 43.37 325.439 37.1658C329.252 43.9226 333.193 48.5317 324.92 62.1861Z" fill="#652C7D"/>
<path d="M230.503 69.5098C231.452 71.9415 232.939 74.1268 234.853 75.9016C236.768 77.6765 239.059 78.995 241.555 79.758C274.02 91.2279 337.292 43.7714 308.34 23.231C291.355 11.3639 259.934 26.764 260.396 27.7085C260.733 28.4013 273.487 20.804 291.967 20.7232C303.001 20.7232 310.173 26.2652 312.381 31.648C315.678 39.3839 307.898 51.0292 301.377 57.2225C290.329 67.1749 276.948 74.1786 262.474 77.5851C236.516 83.3004 224.635 68.2697 236.186 49.5767C245.705 34.5091 260.391 28.6807 259.985 27.9163C259.225 26.4015 222.552 47.316 230.503 69.5098Z" fill="#652C7D"/>
<path d="M253.754 46.5239C248.72 40.0027 249.672 40.9818 264.13 38.5872C304.028 31.999 286.947 34.6777 291.325 34.0934C293.364 33.8233 294.219 34.8693 293.223 36.5273C285.416 49.5005 289.212 46.7109 265.381 50.505C257.107 51.8212 257.735 51.6827 253.754 46.5239Z" fill="#652C7D"/>
<path d="M263.802 59.5364C262.878 58.2456 263.684 56.9039 265.628 56.5345C285.919 52.7959 282.867 53.5325 276.163 64.4527C274.371 67.3693 274.244 67.5979 274.052 67.8588C273.052 69.2051 271.478 69.4198 270.588 68.3022C270.21 67.8403 264.074 59.9175 263.802 59.5364Z" fill="#652C7D"/>
<path d="M339.491 86.7287C334.41 89.248 321.063 98.8936 318.899 103.477C308.67 125.138 343.622 175.525 374.203 172.754C382.955 171.962 398.581 159.115 402.537 151.952C415.752 128.029 368.984 72.1322 339.491 86.7287Z" fill="white"/>
<path d="M404.105 131.082C396.36 107.498 371.272 81.0046 347.49 83.1153C339.024 83.4155 330.713 90.3685 324.245 95.6912C321.502 97.5258 319.236 99.9887 317.636 102.875C310.561 117.363 325.67 153.715 353.503 169.122C369.028 177.465 381.814 176.784 399.385 158.326C405.624 151.773 408.238 144.252 404.105 131.082ZM320.973 104.492C322.356 102.091 324.272 100.041 326.573 98.4992C329.873 95.7282 323.802 98.8641 327.229 113.467C323.88 116.338 324.564 116.539 320.255 118.072C319.454 113.761 319.061 108.417 320.973 104.492ZM320.821 120.693C322.717 118.521 325.222 116.968 328.012 116.236C329.997 122.168 332.785 127.801 336.297 132.978C332.579 135.691 334.189 135.98 328.056 138.16C324.791 132.729 322.349 126.842 320.821 120.693ZM329.365 140.287C334.26 135.961 334.198 137.37 338.017 135.507C341.95 141.021 346.426 146.127 351.378 150.747C346.594 154.966 348.607 153.802 342.701 156.343C337.625 151.549 333.143 146.157 329.365 140.287ZM344.776 158.234C350.425 152.893 349.975 155.07 353.692 152.816C358.037 156.663 362.874 159.915 368.076 162.487C364.409 166.598 364.825 165.6 360.495 168.2C354.715 165.824 349.39 162.45 344.776 158.234ZM363.31 169.198C366.797 165.076 367.748 165.84 371.028 163.725C375.731 165.457 380.798 165.965 385.753 165.205C379.493 169.385 374.233 172.581 363.31 169.198ZM402.396 146.337C401.271 152.763 395.006 158.206 389.838 162.252C361.384 171.352 317.082 116.79 331.184 94.7029C335.826 91.0081 341.839 86.7938 347.742 86.5052C375.625 83.6187 406.345 123.716 402.396 146.337Z" fill="#652C7D"/>
<path d="M387.982 115.732C386.465 113.692 384.731 111.824 382.809 110.16C382.31 110.605 392.337 119.983 395.387 134.762C399.048 153.409 384.814 161.694 365.793 149.324C355.187 142.213 346.549 132.538 340.68 121.198C337.355 114.332 334.57 102.548 339.569 97.3158C343.012 93.6211 350.476 91.3904 359.276 94.7064C375.059 100.722 381.881 110.478 382.539 109.866C383.197 109.254 362.777 87.3285 345.361 91.7737C315.819 99.5419 352.406 156.801 381.943 157.397C396.948 157.799 405.971 139.524 387.982 115.732Z" fill="#652C7D"/>
<path d="M372.956 126.073C365.296 133.895 366.005 133.597 364.834 133.25C356.122 130.678 356.29 130.955 355.932 130.364C355.574 129.768 354.72 131.082 369.866 115.516C370.432 114.934 370.429 115.162 379.241 117.686C379.906 117.876 380.435 118.432 379.962 118.912L372.956 126.073Z" fill="#652C7D"/>
<path d="M351.752 126.268C351.171 125.945 351.496 126.326 348.663 117.401C348.275 116.177 348.178 116.731 355.186 109.619C356.953 107.824 362.576 101.964 362.807 101.929C363.961 101.74 363.596 101.781 366.471 110.806C366.857 112.018 366.933 111.401 359.396 119.105C359.151 118.876 352.533 126.702 351.752 126.268Z" fill="#652C7D"/>
<path d="M376.643 129.523L383.61 122.408C384.012 121.974 384.594 122.45 384.786 123.073C387.557 132.054 387.718 131.931 387.215 132.444C371.923 147.948 373.166 146.992 372.625 146.699C372.044 146.375 372.355 146.777 369.501 137.707C369.166 136.644 368.935 137.309 376.6 129.479L376.643 129.523Z" fill="#652C7D"/>
<path d="M124.344 268.935C132.68 273.442 163.194 279.684 174.156 276.818C220.532 264.69 228.422 187.235 199.112 171.057C194.955 168.771 192.078 168.438 184.289 166.9C172.08 164.475 159.001 162.051 147.732 165.515C103.21 179.1 92.3246 251.616 124.344 268.935Z" fill="white"/>
<path d="M190.443 166.665C171.898 162.984 155.454 158.758 139.051 167.588C101.938 186.572 93.8556 247.503 118.867 267.048C126.822 274.468 157.329 279.532 169.521 278.917C218.622 276.417 238.37 176.398 190.443 166.665ZM212.685 214.257C202.044 215.259 203.887 213.673 197.47 212.784C198.37 205.442 198.058 198.002 196.546 190.761C204.021 190.103 202.839 190.276 209.773 192.033C212.088 199.203 213.074 206.734 212.685 214.257ZM208.438 188.408C200.793 189.147 201.652 188.2 195.454 186.87C193.607 180.549 189.956 174.905 184.949 170.627C192.826 172.262 201.973 172.525 208.438 188.408ZM121.566 263.536C98.7372 246.217 104.94 189.371 141.058 171.548C152.731 165.434 163.524 166.471 177.299 169.071C202.585 181.365 196.666 223.568 182.462 248.046C174.255 261.977 164.067 270.262 147.72 272.151C141.529 271.078 126.18 267.849 121.566 263.536ZM155.973 273.336C162.284 271.708 168.155 268.702 173.165 264.533C178.46 265.21 179.656 263.547 187.482 266.45C175.936 274.842 167.672 274.59 155.973 273.336ZM190.999 263.617C183.677 263.042 184.838 264.229 176.551 261.307C181.281 256.008 185.302 250.117 188.512 243.78C190.147 243.949 190.309 243.577 197.98 243.577C200.24 243.941 202.471 244.467 204.656 245.15C201.376 252.146 196.722 258.426 190.999 263.617ZM206.296 241.557C194.814 241.885 200.188 242.249 190.198 239.883C193.37 232.529 195.619 224.812 196.895 216.906C202.571 217.058 202.157 215.188 212.406 217.73C211.572 225.93 209.501 233.964 206.296 241.557Z" fill="#652C7D"/>
<path d="M163.268 258.167C184.785 235.659 194.881 197.597 177.123 178.324C165.686 165.804 137.74 169.688 123.587 202.127C122.166 205.11 121.165 208.274 120.612 211.531C121.481 211.821 125.023 195.627 140.783 181.989C152.468 172.096 172.881 169.496 180.529 189.621C186.944 206.621 179.897 230.408 168.291 246.827C161.797 255.847 154.322 265.125 142.337 263.864C123.986 261.931 116.936 240.816 118.975 221.652C119.703 215.435 120.742 212.08 120.46 211.999C119.816 211.81 113.084 230.196 120.024 248.282C127.318 267.113 148.297 273.748 163.268 258.167Z" fill="#652C7D"/>
<path d="M164.178 63.1419C168.35 61.8414 172.045 59.3395 174.803 55.9493C177.56 52.5591 179.256 48.4311 179.68 44.0818C179.783 42.7909 179.883 41.2761 180.968 40.5671C186.048 54.8519 188.861 54.838 201.829 59.2024C199.042 62.5231 191.584 58.8884 183.799 82.156C178.294 64.1164 168.658 65.9315 164.178 63.1419Z" fill="white"/>
<path d="M194.789 55.8446C190.071 54.0411 186.028 50.9953 183.328 43.3749C181.712 38.7218 180.908 34.6322 180.229 34.7223C179.553 34.7454 179.349 39.0105 178.442 44.0515C175.26 62.2942 160.841 61.7215 161.178 63.5874C161.155 65.0884 175.708 63.6105 181.192 78.7889C182.899 83.4073 183.587 87.423 184.261 87.3491C186.455 87.3491 183.176 68.7138 200.931 60.7932C205.263 58.8466 203.864 59.1537 194.789 55.8446ZM194.262 62.061C188.843 66.5476 185.172 72.795 183.889 79.7126C181.58 71.5518 175.193 64.4718 166.801 63.1232C172.556 61.3521 178.696 55.3181 180.679 44.4579C180.973 42.8299 180.737 42.883 181.171 44.1346C184.076 52.3415 188.628 55.9416 193.962 57.9737C202.451 61.0496 200.31 57.5026 194.262 62.061Z" fill="#652C7D"/>
<path d="M307.607 12.3045C308.416 9.38103 309.048 6.40908 309.501 3.40942C310.656 4.06986 310.247 6.21973 312.983 10.6465C317.163 17.4055 321.239 16.057 325.536 18.5232C315.558 23.003 316.549 25.4924 312.392 35.4751C312.242 35.833 312.011 35.773 311.845 35.4751C310.545 33.0458 311.067 28.6652 305.093 24.7049C299.962 21.3035 297.214 22.3957 298.241 20.904C298.728 20.1974 305.307 18.5694 307.607 12.3045Z" fill="white"/>
<path d="M320.38 15.9105C318.292 15.1506 316.418 13.9002 314.915 12.2646C313.412 10.6289 312.324 8.656 311.743 6.51199C310.503 2.95581 309.977 -0.00921531 309.485 2.15233e-05C308.012 0.027732 310.178 12.86 301.435 18.4968C298.257 20.679 295.02 21.127 295.2 21.6696C295.362 22.8866 306.076 21.4156 310.272 33.0263C311.556 36.5063 312.039 39.5059 312.508 39.469C313.554 39.3882 312.847 28.0361 321.001 21.8174C326.774 17.4669 330.753 19.6791 320.38 15.9105ZM312.242 34.0539C311.605 31.4352 310.371 28.9997 308.634 26.9383C306.898 24.877 304.708 23.2459 302.236 22.173C297.95 20.4134 298.347 22.4709 302.301 19.8107C304.495 18.2035 306.314 16.1399 307.634 13.7619C308.953 11.384 309.741 8.74824 309.944 6.03629C310.712 9.36048 312.51 12.3576 315.08 14.6007C317.651 16.8438 320.864 18.2186 324.261 18.5291C317.895 20.1271 313.346 27.6851 312.242 34.0539Z" fill="#652C7D"/>
<path d="M304.964 288.805C335.988 305.272 381.992 261.746 364.571 220.402C359.288 207.861 335.05 189.509 331.252 187.212C303.056 170.087 249.044 214.543 269.508 257.453C273.81 266.459 296.272 284.187 304.964 288.805Z" fill="white"/>
<path d="M367.672 224.576C362.823 211.25 356.72 205.525 340.95 192.82C334.847 188.086 330.663 183.288 320.398 182.336C288.617 179.923 251.233 219.143 267.633 256.725C272.528 267.468 291.03 281.547 300.929 288.061C334.752 309.045 380.793 264.787 367.672 224.576ZM336.946 195.379C331.154 194.117 325.13 194.426 319.498 196.275C315.092 192.779 314.526 193.799 310.187 187.731C324.936 184.528 330.958 190.624 336.946 195.379ZM306.587 188.682C312.36 192.883 311.653 191.753 315.907 197.596C310.027 200.129 304.65 203.695 300.029 208.126C296.045 204.38 295.424 206.345 289.256 197.787C294.387 193.659 300.277 190.568 306.587 188.682ZM286.809 199.875C295.717 206.368 293.073 206.11 297.343 210.795C292.657 215.685 288.684 221.21 285.541 227.209C276.232 220.21 281.012 224.782 274.041 216.291C277.343 210.139 281.66 204.591 286.809 199.875ZM272.434 219.533C274.343 220.776 276.175 222.136 277.918 223.604C281.121 226.773 283.303 231.07 283.991 230.384C281.343 235.924 279.65 241.872 278.985 247.976C271.84 243.653 274.136 244.549 268.132 238.593C268.164 232.003 269.633 225.5 272.434 219.533ZM279.562 265.073C273.789 259.025 269.73 254.22 268.381 242.882C275.149 246.821 275.627 249.43 278.833 252.335C279.257 266.05 287.723 273.474 279.562 265.073ZM366.054 243.318C363.567 275.379 331.695 294.899 311.45 288.615C304.709 286.648 294.662 278.633 289.305 274.123C278.53 258.651 279.821 243.683 289.037 226.976C300.558 207.022 322.262 190.384 343.128 200.325C357.579 212.146 367.365 222.551 366.054 243.318Z" fill="#652C7D"/>
<path d="M347.114 209.12C338.172 202.44 322.285 202.475 307.564 216.685C291.342 232.42 286.762 257.498 291.459 268.208C298.717 285.19 325.315 289.753 343.661 270.377C345.483 268.453 349.282 263.532 348.905 263.264C348.153 262.701 340.391 276.681 322.35 280.272C310.868 282.528 298.216 277.501 294.009 267.123C287.24 251.125 303.153 213.506 327.492 208.349C347.351 204.068 366.033 224.585 352.97 255.069C350.998 259.6 346.987 266.255 350.66 261.186C361.886 245.675 363.719 221.338 347.114 209.12Z" fill="#652C7D"/>
<path d="M291.383 222.001C318.537 202.072 309.064 135.267 264.984 120.839C253.246 116.996 240.85 119.5 227.9 122.074C221.153 123.416 215.574 124.067 210.39 128.023C202.386 134.129 198.359 145.619 196.555 155.484C191.172 184.88 208.607 224.878 238.008 232.002C249.542 234.796 281.899 228.961 291.383 222.001Z" fill="white"/>
<path d="M262.668 118.694C248.134 115.02 218.507 122.388 215.493 123.543C195.92 131.297 191.406 162.063 196.16 183.382C203.18 214.678 223.321 231.166 239.343 233.748C250.545 235.729 284.973 230.025 293.313 222.243C319.28 201.966 310.505 132.246 262.668 118.694ZM227.242 125.808C222.234 130.088 218.58 135.734 216.726 142.056C210.695 143.354 211.346 144.34 203.739 143.596C210.02 128.219 218.449 127.642 227.242 125.808ZM202.434 147.226C209.274 145.494 208.242 145.31 215.664 145.954C214.149 153.193 213.833 160.633 214.729 167.975C208.069 168.898 210.205 170.468 199.516 169.448C199.13 161.925 200.119 154.394 202.434 147.226ZM199.754 172.919C210.066 170.378 209.526 172.249 215.267 172.09C216.54 179.997 218.789 187.717 221.963 195.071C212.339 197.368 217.424 197.091 205.864 196.743C202.655 189.149 200.596 181.119 199.754 172.919ZM207.515 200.34C209.7 199.661 211.931 199.136 214.191 198.77C218.188 198.77 223.658 198.971 223.658 198.971C223.534 197.322 226.596 207.028 235.62 216.496C227.291 219.419 228.63 218.209 221.169 218.805C215.441 213.613 210.8 207.338 207.515 200.34ZM248.667 229.095C242.243 229.358 235.318 229.386 224.688 221.631C232.401 218.768 233.941 220.364 239.005 219.719C251.131 230.122 265.086 228.374 248.667 229.095ZM290.612 218.722C285.993 223.04 270.704 226.257 264.476 227.351C248.06 225.455 237.895 217.114 229.722 203.245C215.488 178.694 209.632 136.537 234.895 124.27C248.676 121.675 259.474 120.643 271.122 126.744C307.998 144.926 312.736 201.929 290.612 218.722Z" fill="#652C7D"/>
<path d="M292.725 169.545C287.898 155.018 303.966 201.052 278.895 215.935C276.107 217.737 272.914 218.817 269.605 219.079C266.295 219.34 262.973 218.775 259.936 217.433C248.621 212.87 236.512 192.032 232.687 180.179C215.449 127.275 262.804 109.737 287.448 157.867C290.041 162.989 292.955 170.845 291.099 164.206C287.76 153.141 281.483 143.188 272.935 135.408C260.144 123.973 237.403 121.539 228.725 143.675C218.133 171.06 240.627 212.843 258.761 220.237C281.906 229.975 303.128 200.828 292.725 169.545Z" fill="#652C7D"/>
<path d="M266.721 170.547C264.993 169.531 265.014 170.046 265.882 169.284C267.613 167.661 268.872 165.599 269.527 163.319C270.181 161.038 270.207 158.623 269.6 156.329C268.993 154.035 267.776 151.949 266.078 150.291C264.381 148.633 262.267 147.465 259.959 146.912C259.774 142.497 257.043 139.753 256.253 140.238C255.489 140.682 256.082 143.063 256.662 145.813C256.893 146.903 257.283 146.113 252.47 146.298C251.473 138.818 247.808 138.971 249.351 146.575C248.074 146.974 246.827 147.464 245.617 148.037C246.677 153.549 250.66 165.187 252.544 174.604C252.544 174.835 256.008 197.158 257.514 201.899C260.996 200.83 260.368 200.964 261.019 200.998C261.878 206.674 266.988 210.521 264.192 200.998C265.772 200.945 267.341 200.713 268.868 200.306C270.923 209.711 273.828 205.524 271.775 199.169C283.451 193.027 276.456 176.574 266.721 170.547ZM252.514 152.073C259.211 150.457 263.626 150.311 266.718 156.498C267.333 158.202 267.305 160.072 266.64 161.757C265.975 163.442 264.719 164.828 263.107 165.654C260.299 166.866 257.3 167.575 254.246 167.748C253.526 162.282 253.025 156.548 252.514 152.073ZM261.675 194.874C259.109 188.356 257.004 181.666 255.375 174.853C258.424 173.941 261.664 173.877 264.746 174.669C275.761 178.774 281.887 197.909 261.675 194.874Z" fill="#652C7D"/>
<path d="M282.102 136.421C271.711 141.563 283.719 133.902 290.011 151.297C290.852 150.17 290.806 140.628 300.634 136.532C300.193 135.202 295.468 135.481 292.385 132.428C290.538 130.107 289.051 127.521 287.972 124.757C286.993 129.357 285.051 135.991 280.398 137.308L282.102 136.421Z" fill="white"/>
<path d="M296.803 134.156C285.996 130.027 289.166 111.856 286.467 126.82C284.474 138.236 275.498 137.786 275.722 139.072C275.708 140.31 284.684 138.918 288.192 148.616C288.637 150.464 289.291 152.251 290.141 153.951C291.295 154.214 290.452 144.577 297.352 139.312C301.962 135.759 305.485 137.32 296.803 134.156ZM289.935 148.88C289.352 146.777 288.303 144.833 286.868 143.19C285.432 141.546 283.646 140.247 281.641 139.386C278.664 138.165 278.932 139.513 281.719 137.641C283.492 136.353 284.974 134.706 286.07 132.809C287.166 130.911 287.851 128.805 288.081 126.626C288.773 129.228 290.234 131.562 292.272 133.322C294.31 135.082 296.831 136.187 299.507 136.493C294.572 137.939 290.993 143.76 289.935 148.88Z" fill="#652C7D"/>
<path d="M107.708 172.432C107.708 172.432 85.6739 169.834 82.4503 192.27C79.2266 214.706 72.3151 341.445 72.3151 341.445C72.3151 341.445 69.9251 379.288 78.3191 383.241C86.713 387.195 129.925 388.696 129.925 388.696C221.294 389.686 197.927 388.132 237.458 394.875C313.062 418.863 338.659 429.245 346.901 421.004C356.438 411.467 359.387 372.407 372.995 270.083C372.995 270.083 383.449 216.343 361.112 210.536C361.112 210.536 367.032 219.366 355.985 222.945C344.938 226.525 273.364 242.458 222.333 232.182C171.302 221.906 113.278 209.811 99.0373 186.391C99.0396 186.388 91.6132 175.464 107.708 172.432Z" fill="#652C7D"/>
<path d="M355.604 205.728L354.593 209.118C393.678 223.629 266.092 246.707 166.891 217.177C150.68 212.351 110.731 199.549 101.674 185.375C100.941 184.419 100.469 183.287 100.306 182.093C100.143 180.899 100.295 179.683 100.746 178.565C101.197 177.447 101.932 176.467 102.878 175.72C103.824 174.973 104.949 174.486 106.14 174.307C112.729 172.743 122.513 176.644 129.055 178.429L129.978 175.016C120.818 172.245 108.503 166.564 100.34 172.406C97.9924 174.122 96.4132 176.691 95.9424 179.56C95.4715 182.429 96.1468 185.368 97.8227 187.744C107.727 203.758 147.304 216.84 165.351 222.315C243.691 246.137 363.943 238.209 365.033 214.531C365.321 208.134 359.966 207.077 355.604 205.728Z" fill="#652C7D"/>
<path fill-rule="evenodd" clip-rule="evenodd" d="M82.665 230.468L82.4571 233.576C82.4292 234.192 82.6437 234.795 83.0546 235.255C83.4655 235.714 84.0401 235.995 84.6554 236.036C85.2706 236.077 85.8774 235.875 86.3458 235.474C86.8142 235.073 87.1068 234.505 87.161 233.891L87.3711 230.785C87.4131 230.161 87.2054 229.545 86.7938 229.074C86.3822 228.603 85.8003 228.315 85.1762 228.273C84.5522 228.231 83.937 228.439 83.466 228.851C82.9951 229.262 82.7069 229.844 82.665 230.468Z" fill="white"/>
<path fill-rule="evenodd" clip-rule="evenodd" d="M83.6811 216.439L83.4501 219.545C83.4285 220.002 83.5405 220.456 83.7726 220.85C84.0046 221.245 84.3465 221.563 84.7566 221.767C85.1667 221.97 85.6271 222.049 86.0816 221.995C86.5361 221.941 86.9649 221.756 87.3158 221.462C87.7872 221.071 88.0878 220.512 88.154 219.903L88.3849 216.797C88.4112 216.185 88.1986 215.587 87.7921 215.129C87.3855 214.671 86.8168 214.389 86.2062 214.343C85.5955 214.296 84.9907 214.489 84.5195 214.88C84.0483 215.271 83.7476 215.83 83.6811 216.439Z" fill="white"/>
<path fill-rule="evenodd" clip-rule="evenodd" d="M87.3873 200.319C86.765 200.265 86.1465 200.459 85.6668 200.859C85.1871 201.259 84.885 201.833 84.8264 202.455C84.5955 205.014 83.9397 207.888 86.7107 208.119C87.3311 208.166 87.9448 207.967 88.4198 207.565C88.8949 207.163 89.1933 206.591 89.2509 205.972C89.4725 203.432 90.1468 200.568 87.3873 200.319Z" fill="white"/>
<path fill-rule="evenodd" clip-rule="evenodd" d="M80.1087 272.59L79.9332 275.698C79.9242 276.307 80.1509 276.896 80.5659 277.342C80.9809 277.787 81.5521 278.055 82.1601 278.09C82.7681 278.124 83.3658 277.922 83.8283 277.526C84.2908 277.13 84.5822 276.57 84.6417 275.964L84.8172 272.858C84.827 272.249 84.6008 271.66 84.1859 271.213C83.7711 270.767 83.1998 270.499 82.5915 270.464C81.9833 270.43 81.3852 270.631 80.9225 271.028C80.4597 271.424 80.1681 271.984 80.1087 272.59Z" fill="white"/>
<path fill-rule="evenodd" clip-rule="evenodd" d="M80.9124 258.574L80.7392 261.68C80.7083 261.996 80.7417 262.315 80.8372 262.618C80.9327 262.922 81.0884 263.202 81.295 263.444C81.5016 263.685 81.7549 263.882 82.0395 264.023C82.3242 264.165 82.6345 264.247 82.9517 264.265C83.2689 264.283 83.5866 264.238 83.8856 264.13C84.1847 264.023 84.459 263.856 84.692 263.64C84.9251 263.424 85.1122 263.163 85.242 262.873C85.3719 262.583 85.4418 262.27 85.4476 261.952L85.6208 258.84C85.6389 258.53 85.5958 258.22 85.4938 257.928C85.3918 257.635 85.2331 257.366 85.0267 257.135C84.8203 256.904 84.5703 256.716 84.291 256.581C84.0118 256.447 83.7088 256.369 83.3994 256.353C82.9338 256.326 82.4707 256.438 82.0689 256.674C81.6672 256.911 81.345 257.262 81.1433 257.683C81.0085 257.962 80.9301 258.265 80.9124 258.574Z" fill="white"/>
<path fill-rule="evenodd" clip-rule="evenodd" d="M81.7506 244.594C81.5889 247.201 80.9654 250.032 83.7711 250.201C84.3934 250.233 85.0034 250.019 85.4698 249.606C85.9361 249.193 86.2217 248.613 86.2651 247.991L86.4567 244.885C86.4758 244.576 86.4339 244.266 86.3333 243.974C86.2327 243.681 86.0754 243.411 85.8704 243.179C85.6654 242.947 85.4167 242.757 85.1385 242.621C84.8604 242.486 84.5581 242.406 84.2491 242.387C83.9401 242.368 83.6304 242.41 83.3376 242.51C83.0448 242.611 82.7747 242.768 82.5426 242.973C82.0741 243.387 81.7891 243.97 81.7506 244.594Z" fill="white"/>
<path fill-rule="evenodd" clip-rule="evenodd" d="M80.252 312.48C79.6275 312.456 79.0191 312.68 78.558 313.101C78.0969 313.523 77.8204 314.109 77.788 314.733C77.6795 317.292 77.1484 320.206 79.9333 320.308C80.556 320.326 81.1609 320.099 81.6175 319.675C82.0742 319.251 82.3459 318.665 82.3741 318.042C82.4734 315.498 83.0253 312.604 80.252 312.48Z" fill="white"/>
<path fill-rule="evenodd" clip-rule="evenodd" d="M78.4947 300.676L78.3239 303.787C78.2927 304.104 78.3259 304.424 78.4216 304.727C78.5173 305.031 78.6735 305.312 78.8807 305.554C79.0879 305.796 79.3419 305.993 79.6274 306.134C79.9129 306.275 80.224 306.357 80.5419 306.375C80.8599 306.392 81.1781 306.345 81.4774 306.237C81.7767 306.128 82.051 305.96 82.2837 305.743C82.5163 305.525 82.7026 305.263 82.8313 304.972C82.9599 304.681 83.0283 304.366 83.0323 304.048L83.2055 300.935C83.222 300.321 82.9981 299.725 82.5814 299.274C82.1647 298.823 81.5882 298.552 80.9748 298.52C80.3627 298.489 79.7624 298.696 79.3 299.098C78.8375 299.5 78.5489 300.066 78.4947 300.676Z" fill="white"/>
<path fill-rule="evenodd" clip-rule="evenodd" d="M79.305 286.702L79.1249 289.807C79.0888 290.432 79.3022 291.045 79.7181 291.512C80.1341 291.979 80.7185 292.262 81.3429 292.298C81.9673 292.334 82.5805 292.121 83.0475 291.705C83.5146 291.289 83.7973 290.704 83.8334 290.08L84.0135 286.974C84.0394 286.509 83.9272 286.046 83.691 285.644C83.4547 285.242 83.105 284.919 82.6857 284.716C82.3369 284.545 81.9512 284.463 81.5631 284.478C81.175 284.493 80.7966 284.603 80.4618 284.8C80.1269 284.997 79.846 285.273 79.6441 285.605C79.4423 285.937 79.3258 286.314 79.305 286.702Z" fill="white"/>
<path fill-rule="evenodd" clip-rule="evenodd" d="M77.0929 342.963C77.0929 344.334 77.0929 344.81 77.0444 345.965C77.031 346.579 77.2546 347.174 77.6686 347.628C78.0827 348.081 78.6555 348.358 79.2682 348.401C81.8637 348.546 81.7829 345.939 81.8083 344.551V342.986C81.8117 342.519 81.6763 342.061 81.4192 341.671C81.162 341.282 80.7948 340.977 80.3642 340.796C79.9336 340.616 79.4589 340.567 79.0006 340.657C78.5423 340.746 78.121 340.97 77.7903 341.3C77.3469 341.739 77.0975 342.337 77.0929 342.963Z" fill="white"/>
<path fill-rule="evenodd" clip-rule="evenodd" d="M79.7301 326.62C79.1051 326.606 78.5 326.84 78.046 327.269C77.5921 327.699 77.326 328.291 77.3054 328.915C77.2408 331.474 76.7581 334.404 79.55 334.458C80.1731 334.465 80.7741 334.227 81.2231 333.795C81.6721 333.363 81.9329 332.771 81.9492 332.148C82.0024 329.599 82.5035 326.699 79.7301 326.62Z" fill="white"/>
<path fill-rule="evenodd" clip-rule="evenodd" d="M103.831 380.832C103.829 381.459 104.074 382.061 104.512 382.507C104.951 382.954 105.549 383.209 106.175 383.218C108.715 383.234 111.673 383.663 111.669 380.869C111.663 380.248 111.413 379.653 110.974 379.213C110.534 378.773 109.94 378.523 109.318 378.516C106.766 378.512 103.866 378.059 103.831 380.832Z" fill="white"/>
<path fill-rule="evenodd" clip-rule="evenodd" d="M88.8422 379.378C88.7247 379.993 88.8545 380.629 89.2035 381.148C89.5526 381.667 90.0925 382.027 90.7057 382.149C93.2066 382.637 96.0169 383.604 96.5365 380.856C96.6451 380.244 96.5096 379.614 96.1591 379.101C95.8086 378.588 95.2709 378.232 94.6614 378.111C92.1536 377.63 89.3872 376.647 88.8422 379.378Z" fill="white"/>
<path fill-rule="evenodd" clip-rule="evenodd" d="M79.9241 369.116C77.4925 370.432 79.0466 373.125 80.6838 375.362C80.9718 375.751 81.3683 376.045 81.8234 376.209C82.2785 376.372 82.7718 376.397 83.2411 376.281C83.7105 376.165 84.1349 375.912 84.461 375.555C84.7871 375.198 85.0003 374.753 85.0736 374.275C85.1707 373.632 85.0087 372.978 84.6233 372.455C83.5103 370.963 82.5589 367.691 79.9241 369.116Z" fill="white"/>
<path fill-rule="evenodd" clip-rule="evenodd" d="M79.1851 354.465C76.414 354.433 76.4718 357.543 76.8158 360.293C76.9261 360.913 77.2708 361.466 77.7783 361.838C78.2858 362.21 78.9172 362.373 79.5413 362.292C80.1653 362.211 80.7342 361.892 81.1297 361.403C81.5252 360.913 81.717 360.29 81.6652 359.663C81.4158 357.815 82.1801 354.497 79.1851 354.465Z" fill="white"/>
<path fill-rule="evenodd" clip-rule="evenodd" d="M148.413 382.632C150.964 382.591 153.874 382.977 153.839 380.194C153.829 379.568 153.571 378.971 153.122 378.535C152.673 378.099 152.069 377.858 151.442 377.866L148.337 377.917C148.027 377.921 147.721 377.987 147.436 378.11C147.152 378.233 146.894 378.411 146.679 378.633C146.463 378.856 146.294 379.119 146.181 379.408C146.067 379.696 146.012 380.004 146.018 380.314C146.03 380.939 146.288 381.533 146.737 381.968C147.186 382.402 147.788 382.641 148.413 382.632Z" fill="white"/>
<path fill-rule="evenodd" clip-rule="evenodd" d="M134.389 382.909L137.499 382.844C138.125 382.831 138.719 382.57 139.152 382.119C139.585 381.668 139.822 381.063 139.809 380.438C139.796 379.813 139.535 379.218 139.084 378.785C138.633 378.352 138.028 378.116 137.402 378.129L134.292 378.193C133.667 378.209 133.074 378.47 132.642 378.921C132.209 379.371 131.972 379.975 131.983 380.6C131.996 381.225 132.257 381.819 132.708 382.252C133.159 382.685 133.764 382.921 134.389 382.909Z" fill="white"/>
<path fill-rule="evenodd" clip-rule="evenodd" d="M117.987 380.828C117.995 381.454 118.25 382.051 118.697 382.488C119.144 382.926 119.747 383.168 120.372 383.163C122.912 383.13 125.866 383.516 125.817 380.72C125.799 380.098 125.538 379.508 125.09 379.076C124.642 378.644 124.042 378.405 123.42 378.41C120.873 378.443 117.957 378.055 117.987 380.828Z" fill="white"/>
<path fill-rule="evenodd" clip-rule="evenodd" d="M188.117 380.725C188.087 381.346 188.301 381.953 188.715 382.417C189.128 382.881 189.707 383.164 190.327 383.205C192.821 383.353 195.705 383.99 195.913 381.226C195.958 380.598 195.751 379.978 195.34 379.502C194.928 379.026 194.345 378.733 193.717 378.686C191.235 378.527 188.272 377.924 188.117 380.725Z" fill="white"/>
<path fill-rule="evenodd" clip-rule="evenodd" d="M174.117 380.22C174.064 383.051 177.022 382.624 179.49 382.705C180.111 382.716 180.712 382.487 181.167 382.064C181.622 381.642 181.895 381.059 181.929 380.439C182.026 377.881 179.421 377.98 178.091 377.948C176.685 377.918 174.167 377.597 174.117 380.22Z" fill="white"/>
<path fill-rule="evenodd" clip-rule="evenodd" d="M160.144 380.136C160.152 380.758 160.405 381.353 160.847 381.791C161.289 382.229 161.886 382.477 162.508 382.48H165.593C165.903 382.481 166.21 382.421 166.496 382.304C166.783 382.187 167.044 382.014 167.264 381.796C167.483 381.578 167.658 381.319 167.778 381.034C167.898 380.748 167.96 380.442 167.961 380.132C167.963 379.823 167.903 379.516 167.786 379.229C167.669 378.943 167.496 378.682 167.278 378.462C167.06 378.242 166.801 378.067 166.516 377.948C166.23 377.828 165.924 377.765 165.614 377.764C163.178 377.764 160.127 377.302 160.144 380.136Z" fill="white"/>
<path fill-rule="evenodd" clip-rule="evenodd" d="M229.805 385.954C229.679 386.558 229.793 387.188 230.124 387.71C230.455 388.232 230.976 388.604 231.577 388.748C234.008 389.302 236.705 390.424 237.393 387.75C237.51 387.294 237.487 386.813 237.328 386.37C237.17 385.927 236.882 385.542 236.502 385.263C236.251 385.078 235.966 384.944 235.664 384.868C233.216 384.27 230.397 383.21 229.805 385.954Z" fill="white"/>
<path fill-rule="evenodd" clip-rule="evenodd" d="M216.04 383.447C215.953 384.06 216.108 384.683 216.474 385.182C216.839 385.682 217.386 386.019 217.996 386.121C220.46 386.516 223.231 387.454 223.737 384.736C223.792 384.428 223.786 384.113 223.719 383.808C223.653 383.503 223.527 383.215 223.348 382.959C223.17 382.702 222.942 382.484 222.679 382.316C222.417 382.148 222.123 382.033 221.816 381.978C219.338 381.547 216.456 380.671 216.04 383.447Z" fill="white"/>
<path fill-rule="evenodd" clip-rule="evenodd" d="M202.19 381.76C202.136 382.378 202.326 382.992 202.719 383.471C203.111 383.951 203.675 384.258 204.291 384.328C206.778 384.587 209.602 385.358 209.951 382.613C210.023 381.988 209.845 381.36 209.456 380.866C209.066 380.372 208.497 380.053 207.873 379.978C205.362 379.687 202.455 378.976 202.19 381.76Z" fill="white"/>
<path fill-rule="evenodd" clip-rule="evenodd" d="M271.579 401.052C274.057 401.876 276.634 403.204 277.516 400.539C277.708 399.946 277.659 399.301 277.379 398.743C277.1 398.186 276.612 397.761 276.022 397.56L273.068 396.576C272.475 396.381 271.828 396.429 271.269 396.709C270.71 396.989 270.285 397.478 270.085 398.07C269.889 398.664 269.936 399.311 270.216 399.87C270.496 400.428 270.986 400.853 271.579 401.052Z" fill="white"/>
<path fill-rule="evenodd" clip-rule="evenodd" d="M258.264 396.622L261.215 397.601C261.802 397.774 262.434 397.712 262.976 397.428C263.519 397.145 263.929 396.661 264.122 396.08C264.315 395.499 264.274 394.866 264.009 394.314C263.744 393.763 263.274 393.336 262.7 393.124L259.749 392.147C259.308 392.003 258.833 391.993 258.386 392.119C257.939 392.244 257.539 392.498 257.237 392.85C256.934 393.202 256.742 393.636 256.686 394.097C256.629 394.558 256.71 395.025 256.918 395.44C257.193 395.996 257.678 396.421 258.264 396.622Z" fill="white"/>
<path fill-rule="evenodd" clip-rule="evenodd" d="M243.455 389.415C242.668 392.113 245.582 392.484 247.951 393.244C248.545 393.424 249.184 393.367 249.736 393.082C250.29 392.801 250.711 392.314 250.912 391.727C251.704 389.286 249.147 388.667 247.91 388.286C246.554 387.875 244.196 386.878 243.455 389.415Z" fill="white"/>
<path fill-rule="evenodd" clip-rule="evenodd" d="M310.325 410.766C310.158 411.369 310.236 412.014 310.542 412.56C310.849 413.106 311.358 413.509 311.96 413.68C313.66 414.142 315.232 414.574 314.997 414.512C315.296 414.592 315.608 414.613 315.915 414.573C316.222 414.533 316.519 414.432 316.787 414.278C317.055 414.123 317.291 413.916 317.479 413.67C317.668 413.425 317.806 413.144 317.886 412.844C318.046 412.24 317.96 411.597 317.648 411.056C317.336 410.515 316.822 410.119 316.218 409.956C313.886 409.332 311.094 408.048 310.325 410.766Z" fill="white"/>
<path fill-rule="evenodd" clip-rule="evenodd" d="M296.853 406.768C296.02 409.456 298.915 409.869 301.407 410.626C301.855 410.765 302.334 410.766 302.783 410.629C303.231 410.492 303.628 410.223 303.922 409.858C304.118 409.615 304.263 409.338 304.351 409.038C305.083 406.567 302.451 406.013 301.282 405.662C299.908 405.241 297.62 404.285 296.853 406.768Z" fill="white"/>
<path fill-rule="evenodd" clip-rule="evenodd" d="M283.513 402.51C283.322 403.105 283.374 403.751 283.657 404.309C283.941 404.866 284.432 405.289 285.025 405.486C287.457 406.274 290.12 407.576 290.965 404.918C291.15 404.322 291.093 403.678 290.807 403.124C290.521 402.569 290.029 402.15 289.436 401.955C287.025 401.18 284.379 399.863 283.513 402.51Z" fill="white"/>
<path fill-rule="evenodd" clip-rule="evenodd" d="M345.321 403.904C345.797 404.238 346.38 404.382 346.957 404.307C347.533 404.233 348.061 403.946 348.436 403.502C348.688 403.21 348.862 402.86 348.942 402.484C349.141 401.576 349.404 400.232 349.577 399.318C349.659 398.72 349.508 398.113 349.156 397.623C348.803 397.133 348.276 396.798 347.683 396.686C347.09 396.574 346.476 396.694 345.969 397.021C345.462 397.348 345.101 397.858 344.959 398.445C344.361 401.618 343.776 402.839 345.321 403.904Z" fill="white"/>
<path fill-rule="evenodd" clip-rule="evenodd" d="M338.047 415.503C339.638 418.523 342.266 416.595 344.315 413.886C344.695 413.37 344.861 412.727 344.779 412.091C344.697 411.456 344.372 410.876 343.874 410.473C343.373 410.073 342.737 409.881 342.098 409.937C341.46 409.993 340.867 410.294 340.444 410.776C339.269 412.171 336.851 413.233 338.047 415.503Z" fill="white"/>
<path fill-rule="evenodd" clip-rule="evenodd" d="M324.167 414.94C324.15 417.372 326.531 417.386 328.937 417.91C329.33 418.001 329.739 417.987 330.124 417.869C330.51 417.751 330.857 417.533 331.131 417.238C331.407 416.945 331.601 416.585 331.694 416.194C331.787 415.802 331.776 415.393 331.662 415.007C331.293 413.719 330.66 413.569 327.723 412.869L327.03 412.703C326.69 412.619 326.336 412.614 325.994 412.687C325.652 412.761 325.331 412.911 325.055 413.126C324.779 413.342 324.556 413.617 324.402 413.931C324.248 414.245 324.168 414.591 324.167 414.94Z" fill="white"/>
<path fill-rule="evenodd" clip-rule="evenodd" d="M353.627 362.635C354.244 362.733 354.874 362.585 355.382 362.221C355.889 361.857 356.232 361.308 356.336 360.693C356.754 358.171 357.641 355.349 354.888 354.919C354.272 354.827 353.643 354.98 353.138 355.345C352.632 355.711 352.291 356.26 352.187 356.875C351.787 359.328 350.868 362.18 353.627 362.635Z" fill="white"/>
<path fill-rule="evenodd" clip-rule="evenodd" d="M354.013 374.557L354.537 371.486C354.643 370.87 354.499 370.237 354.137 369.726C353.776 369.216 353.227 368.87 352.61 368.765C351.994 368.659 351.361 368.803 350.851 369.165C350.34 369.526 349.994 370.075 349.889 370.692L349.365 373.761C349.259 374.377 349.403 375.01 349.764 375.521C350.125 376.031 350.674 376.378 351.291 376.483C351.907 376.589 352.54 376.445 353.051 376.084C353.561 375.723 353.907 375.174 354.013 374.557Z" fill="white"/>
<path fill-rule="evenodd" clip-rule="evenodd" d="M351.591 388.359L352.136 385.292C352.221 384.687 352.068 384.073 351.709 383.579C351.35 383.084 350.814 382.748 350.212 382.641C349.611 382.534 348.991 382.664 348.484 383.004C347.977 383.345 347.621 383.868 347.492 384.466L346.947 387.532C346.839 388.148 346.979 388.781 347.337 389.293C347.694 389.806 348.24 390.157 348.854 390.269C349.47 390.377 350.104 390.237 350.617 389.879C351.13 389.521 351.48 388.974 351.591 388.359Z" fill="white"/>
<path fill-rule="evenodd" clip-rule="evenodd" d="M362.719 318.949L363.158 315.866C363.231 315.254 363.062 314.637 362.687 314.148C362.312 313.659 361.761 313.336 361.151 313.247C360.54 313.16 359.92 313.316 359.423 313.681C358.926 314.045 358.591 314.59 358.491 315.198L358.05 318.281C358.005 318.588 358.022 318.9 358.098 319.2C358.175 319.501 358.31 319.783 358.496 320.031C358.681 320.279 358.914 320.488 359.181 320.646C359.447 320.803 359.743 320.907 360.049 320.951C360.669 321.037 361.297 320.875 361.797 320.5C362.297 320.125 362.628 319.567 362.719 318.949Z" fill="white"/>
<path fill-rule="evenodd" clip-rule="evenodd" d="M360.689 332.853L361.151 329.773C361.241 329.154 361.083 328.525 360.712 328.022C360.435 327.647 360.052 327.362 359.613 327.204C359.174 327.046 358.698 327.022 358.245 327.136C357.792 327.249 357.383 327.494 357.07 327.84C356.757 328.187 356.554 328.618 356.486 329.08L356.024 332.16C355.933 332.779 356.09 333.409 356.463 333.911C356.835 334.413 357.392 334.747 358.01 334.839C358.629 334.931 359.259 334.773 359.761 334.401C360.263 334.028 360.597 333.472 360.689 332.853Z" fill="white"/>
<path fill-rule="evenodd" clip-rule="evenodd" d="M355.881 348.667C356.5 348.762 357.13 348.608 357.636 348.24C358.141 347.871 358.48 347.317 358.578 346.699C358.971 344.175 359.825 341.351 357.077 340.926C356.46 340.837 355.832 340.994 355.329 341.364C354.827 341.733 354.489 342.285 354.389 342.901C354.004 345.434 353.14 348.242 355.881 348.667Z" fill="white"/>
<path fill-rule="evenodd" clip-rule="evenodd" d="M368.346 277.106C368.674 274.517 369.478 271.733 366.691 271.384C366.071 271.31 365.448 271.483 364.955 271.865C364.462 272.248 364.14 272.809 364.058 273.427L363.668 276.515C363.629 276.822 363.651 277.134 363.733 277.433C363.814 277.731 363.954 278.011 364.144 278.256C364.334 278.5 364.57 278.705 364.839 278.859C365.108 279.012 365.404 279.111 365.711 279.15C366.019 279.189 366.33 279.166 366.629 279.085C366.928 279.003 367.207 278.863 367.452 278.674C367.697 278.484 367.902 278.248 368.055 277.979C368.208 277.71 368.307 277.413 368.346 277.106Z" fill="white"/>
<path fill-rule="evenodd" clip-rule="evenodd" d="M366.547 291.043C366.885 288.454 367.702 285.674 364.915 285.312C364.296 285.237 363.672 285.409 363.178 285.789C362.684 286.17 362.359 286.729 362.273 287.346L361.871 290.431C361.817 291.038 362 291.642 362.381 292.117C362.762 292.592 363.312 292.902 363.916 292.981C364.52 293.06 365.131 292.902 365.621 292.541C366.112 292.18 366.444 291.643 366.547 291.043Z" fill="white"/>
<path fill-rule="evenodd" clip-rule="evenodd" d="M362.024 306.944C362.643 307.026 363.269 306.861 363.767 306.485C364.265 306.108 364.595 305.551 364.684 304.933C365.033 302.392 365.839 299.559 363.084 299.187C362.465 299.109 361.84 299.277 361.344 299.656C360.848 300.034 360.521 300.592 360.433 301.21C360.093 303.729 359.271 306.565 362.024 306.944Z" fill="white"/>
<path fill-rule="evenodd" clip-rule="evenodd" d="M373.397 235.209L373.75 232.117C373.785 231.81 373.759 231.498 373.674 231.2C373.589 230.903 373.446 230.625 373.253 230.382C373.06 230.14 372.822 229.938 372.551 229.787C372.28 229.637 371.983 229.542 371.675 229.507C371.054 229.436 370.43 229.614 369.94 230.003C369.45 230.392 369.136 230.96 369.064 231.581L368.711 234.673C368.676 234.981 368.702 235.293 368.787 235.59C368.872 235.888 369.015 236.166 369.208 236.408C369.401 236.651 369.639 236.853 369.91 237.003C370.181 237.153 370.478 237.249 370.786 237.284C371.094 237.319 371.405 237.293 371.703 237.208C372.001 237.123 372.279 236.98 372.521 236.787C372.763 236.595 372.966 236.356 373.116 236.085C373.266 235.815 373.361 235.517 373.397 235.209Z" fill="white"/>
<path fill-rule="evenodd" clip-rule="evenodd" d="M371.766 249.161C372.073 246.568 372.854 243.778 370.064 243.453C369.444 243.385 368.822 243.564 368.333 243.95C367.843 244.337 367.525 244.901 367.448 245.52L367.081 248.609C367.034 248.922 367.051 249.241 367.13 249.547C367.209 249.853 367.348 250.14 367.54 250.391C367.732 250.642 367.972 250.852 368.247 251.008C368.522 251.165 368.825 251.264 369.139 251.301C369.453 251.338 369.771 251.312 370.074 251.224C370.378 251.135 370.66 250.987 370.905 250.787C371.15 250.588 371.353 250.341 371.501 250.062C371.649 249.782 371.739 249.476 371.766 249.161Z" fill="white"/>
<path fill-rule="evenodd" clip-rule="evenodd" d="M370.094 263.064C370.411 260.473 371.203 257.686 368.413 257.349C367.794 257.28 367.173 257.457 366.683 257.842C366.193 258.226 365.872 258.786 365.79 259.404L365.411 262.494C365.355 263.104 365.539 263.713 365.924 264.19C366.31 264.667 366.867 264.975 367.476 265.048C368.085 265.124 368.699 264.959 369.189 264.588C369.678 264.218 370.003 263.671 370.094 263.064Z" fill="white"/>
<path fill-rule="evenodd" clip-rule="evenodd" d="M223.123 339.291L223.485 335.097C223.529 334.632 223.431 334.165 223.206 333.756C222.981 333.346 222.638 333.014 222.222 332.802C221.878 332.623 221.495 332.532 221.107 332.537C220.719 332.541 220.339 332.641 219.999 332.828C219.659 333.015 219.371 333.283 219.159 333.608C218.947 333.933 218.819 334.305 218.786 334.691L218.423 338.885C218.396 339.193 218.43 339.505 218.523 339.8C218.617 340.096 218.767 340.37 218.967 340.607C219.166 340.845 219.411 341.04 219.686 341.183C219.961 341.326 220.262 341.412 220.571 341.439C221.194 341.492 221.813 341.295 222.292 340.893C222.771 340.49 223.068 339.914 223.123 339.291Z" fill="white"/>
<path fill-rule="evenodd" clip-rule="evenodd" d="M221.76 355.235L222.113 351.041C222.166 350.418 221.968 349.8 221.565 349.322C221.161 348.844 220.584 348.547 219.961 348.494C219.338 348.442 218.72 348.639 218.242 349.043C217.764 349.446 217.467 350.023 217.414 350.646L217.061 354.838C217.021 355.153 217.045 355.474 217.132 355.78C217.22 356.086 217.368 356.371 217.568 356.618C217.768 356.865 218.016 357.07 218.297 357.219C218.578 357.368 218.886 357.458 219.203 357.485C219.52 357.512 219.84 357.474 220.142 357.374C220.444 357.275 220.723 357.115 220.961 356.905C221.2 356.695 221.394 356.438 221.531 356.151C221.669 355.864 221.746 355.553 221.76 355.235Z" fill="white"/>
<path fill-rule="evenodd" clip-rule="evenodd" d="M217.957 373.286C218.579 373.33 219.194 373.126 219.667 372.719C220.14 372.312 220.433 371.735 220.483 371.113C220.714 367.947 221.601 364.627 218.636 364.391C218.013 364.345 217.398 364.546 216.922 364.951C216.447 365.355 216.15 365.931 216.096 366.553C215.853 369.728 214.999 373.065 217.957 373.286Z" fill="white"/>
<path fill-rule="evenodd" clip-rule="evenodd" d="M224.515 293.504C225.138 293.547 225.753 293.341 226.225 292.933C226.698 292.524 226.989 291.945 227.037 291.322C227.268 288.147 228.106 284.792 225.134 284.598C224.512 284.561 223.901 284.77 223.433 285.179C222.964 285.589 222.675 286.166 222.628 286.787C222.414 289.967 221.552 293.292 224.515 293.504Z" fill="white"/>
<path fill-rule="evenodd" clip-rule="evenodd" d="M223.291 309.473C223.913 309.518 224.528 309.317 225.003 308.913C225.478 308.51 225.775 307.935 225.831 307.314C225.981 305.467 226.18 302.867 226.164 303.105C226.191 302.492 225.979 301.893 225.573 301.435C225.166 300.976 224.598 300.693 223.986 300.646C223.375 300.599 222.77 300.792 222.298 301.184C221.827 301.575 221.526 302.135 221.46 302.744C221.218 305.915 220.331 309.233 223.291 309.473Z" fill="white"/>
<path fill-rule="evenodd" clip-rule="evenodd" d="M224.508 323.226L224.864 319.03C224.904 318.565 224.806 318.098 224.581 317.689C224.356 317.28 224.014 316.946 223.599 316.732C223.185 316.517 222.715 316.431 222.251 316.484C221.787 316.536 221.35 316.726 220.993 317.028C220.516 317.431 220.217 318.007 220.164 318.63L219.809 322.826C219.756 323.449 219.953 324.068 220.356 324.546C220.759 325.024 221.335 325.323 221.959 325.376C222.582 325.429 223.2 325.232 223.679 324.829C224.157 324.426 224.455 323.849 224.508 323.226Z" fill="white"/>
<path fill-rule="evenodd" clip-rule="evenodd" d="M226.884 245.446C227.508 245.454 228.11 245.216 228.56 244.784C229.009 244.352 229.271 243.76 229.288 243.137C229.32 241.668 229.337 238.652 229.334 238.888C229.339 238.261 229.095 237.659 228.655 237.213C228.215 236.767 227.617 236.514 226.99 236.509C226.364 236.505 225.762 236.749 225.316 237.188C224.87 237.628 224.617 238.227 224.612 238.853V240.95C224.603 242.578 224.203 245.397 226.884 245.446Z" fill="white"/>
<path fill-rule="evenodd" clip-rule="evenodd" d="M226.385 261.464C227.013 261.489 227.624 261.263 228.084 260.837C228.545 260.411 228.818 259.819 228.842 259.192C228.842 258.961 228.993 254.74 228.986 254.973C228.98 254.364 228.74 253.781 228.315 253.346C227.89 252.91 227.314 252.655 226.705 252.635C226.097 252.614 225.504 252.829 225.051 253.235C224.598 253.641 224.319 254.207 224.273 254.814L224.201 256.915C224.141 258.589 223.739 261.353 226.385 261.464Z" fill="white"/>
<path fill-rule="evenodd" clip-rule="evenodd" d="M228.067 275.185L228.298 270.976C228.312 270.363 228.087 269.768 227.67 269.318C227.254 268.868 226.679 268.597 226.066 268.564C225.454 268.531 224.853 268.737 224.39 269.139C223.927 269.542 223.639 270.108 223.587 270.719L223.356 274.927C223.34 275.236 223.384 275.546 223.485 275.839C223.615 276.204 223.832 276.532 224.118 276.793C224.405 277.055 224.751 277.242 225.126 277.338C225.502 277.434 225.895 277.437 226.272 277.345C226.648 277.254 226.997 277.071 227.286 276.813C227.751 276.395 228.032 275.81 228.067 275.185Z" fill="white"/>
<path d="M247.173 271.905C248.328 260.514 251.951 258.634 259.788 258.597C279.971 258.5 315.747 259.583 335.068 265.624C345.1 268.76 342.008 278.235 335.53 347.405C331.575 389.638 326.402 391.869 298.756 386.874C251.831 378.397 238.052 380.357 239.64 358.346C247.249 253.496 242.153 321.149 247.173 271.905Z" fill="white"/>
<path d="M239.301 345.634L242.349 345.909C249.214 266.49 246.713 263.701 254.518 261.341C262.601 258.9 304.086 262.034 322.846 264.717C330.134 265.758 337.204 265.795 338.417 273.178C338.667 276.796 338.582 280.429 338.165 284.031C337.153 313.337 337.04 299.219 334.962 325.625C332.884 352.074 333.29 348.948 330.085 368.726C328.178 380.503 326.367 384.62 316.031 385.32C300.204 386.391 251.108 376.956 245.744 373.081C240.074 368.989 241.76 353.518 242.349 345.909L239.301 345.634C238.412 354.792 236.248 370.499 243.61 375.988C250.808 381.353 300.901 390.636 316.313 389.714C333.214 388.705 333.359 378.489 336.844 355.356C337.5 351.007 342.827 296.088 342.899 287.95C342.989 277.813 344.416 273.402 341.666 268.112C337.89 260.84 328.933 260.334 308.942 258.413C295.019 256.854 281.016 256.127 267.007 256.238C259.848 256.184 250.916 255.489 246.949 261.78C243.744 266.86 244.437 274.942 243.827 281.131C241.691 302.664 243.139 283.44 239.301 345.634Z" fill="#652C7D"/>
<path d="M315.622 273.834C310.635 268.426 312.39 269.486 307.79 273.677C307.318 274.201 306.692 274.562 306.002 274.707C305.313 274.855 304.595 274.781 303.952 274.495C303.407 274.081 302.961 273.551 302.647 272.943C298.345 266.138 298.319 269.269 294.237 272.797C290.725 275.832 289.877 271.243 288.905 270.458C288.861 270.689 290.034 270.821 286.997 268.283C286.048 267.489 285.427 267.359 284.097 268.502C277.091 274.472 275.978 277.811 277.989 259.016C278.585 253.458 278.22 249.14 278.978 246.699C280.612 246.253 283.596 254.686 285.986 251.59C293.406 241.986 291.394 249.232 298.225 253.652C299.943 254.767 302.961 250.01 303.688 249.301C307.614 245.486 309.461 253.121 312.533 254.238C312.972 254.423 313.466 254.43 313.91 254.257C314.354 254.085 314.714 253.747 314.913 253.315C315.629 250.941 318.608 250.19 320.64 248.782C321.333 252.603 320.92 276.929 319.786 277.356C319.077 277.617 316.509 274.795 315.622 273.834Z" fill="white"/>
<path d="M320.966 248.021C320.412 247.413 313.491 253.27 312.974 253.186C312.702 252.87 312.454 252.533 312.233 252.18C308.868 247.222 306.67 244.384 302.331 248.693C301.779 249.24 299.426 252.094 299.193 252.327C293.2 247.115 292.011 243.552 289.33 246.196C287.483 248.023 285.127 250.946 284.894 251.083C284.737 251.459 281.444 247.864 280.788 247.157C278.828 245.037 278.22 244.03 277.324 249.515C276.486 254.364 275.793 273.798 277.578 273.745C277.98 274.286 283.799 270.141 284.483 269.75C286.46 268.566 286.647 269.635 288.09 271.72C292.27 277.819 292.42 275.281 298.574 270.496C299.895 270.496 302.499 277.812 306.875 275.927C308.995 275.031 309.339 273.436 311.429 271.662C311.877 270.868 319.096 278.77 319.881 277.666C322.599 278.061 322.832 248.164 320.966 248.021ZM319.061 262.834C318.964 283.594 321.601 276.897 313.309 269.723C312.196 269.011 311.755 268.219 310.062 269.448C308.771 270.455 307.573 271.575 306.478 272.792C304.169 274.586 303.418 269.395 299.814 267.619C297.394 266.656 296.532 268.081 291.962 272.131L291.905 272.117C287.949 267.778 287.801 263.936 281.176 269.76C279.839 270.99 278.835 271.988 278.23 272.681C279.146 268.416 279.627 264.067 279.664 259.703C280.562 245.294 277.426 245.016 281.393 250.48C284.744 255.098 285.282 254.089 288.817 250.681C292.156 247.416 289.425 247.589 295.823 253.505C297.128 254.71 297.872 255.556 299.068 255.62C301.329 255.692 302.705 252.882 304.566 250.817C306.972 248.148 307.173 250.48 310.93 254.68C311.184 255.018 311.517 255.288 311.9 255.467C312.282 255.646 312.702 255.729 313.124 255.708C313.545 255.688 313.956 255.566 314.32 255.353C314.683 255.14 314.99 254.842 315.214 254.484C316.987 252.826 318.678 251.078 320.276 249.249C319.383 253.721 318.976 258.275 319.061 262.834Z" fill="#652C7D"/>
<path d="M321.975 306.294L313.216 305.282L314.523 286.312C314.613 285.049 312.646 285.056 312.558 286.312L311.267 305.058L293.048 303.001L294.389 283.513C294.477 282.253 292.512 282.257 292.424 283.513L291.096 302.786L272.727 300.773L274.043 281.514C274.131 280.251 272.166 280.258 272.078 281.514L270.775 300.565L266.85 300.142C265.596 300.006 265.605 301.971 266.85 302.105L270.658 302.514L269.491 320.454L264.947 319.867C263.698 319.703 263.709 321.671 264.947 321.83L269.369 322.405L268.242 340.729L263.811 340.151C262.559 339.99 262.571 341.955 263.811 342.117L268.127 342.678L267.148 359.466C267.076 360.731 269.041 360.726 269.113 359.466L270.076 342.934L288.399 345.359L287.282 364.484C287.21 365.747 289.175 365.742 289.247 364.484L290.348 345.62L308.538 348.09L307.416 367.28C307.344 368.545 309.309 368.541 309.381 367.28L310.487 348.344L319.278 349.564C320.516 349.735 321.049 347.843 319.802 347.668L310.602 346.396L311.738 328.051L319.721 329.15C320.959 329.324 321.493 327.43 320.246 327.257L311.863 326.102L313.096 307.222L321.987 308.247C323.229 308.404 323.22 306.439 321.975 306.294ZM272.597 302.715L290.967 304.726L289.764 323.116L271.429 320.699L272.597 302.715ZM270.18 340.974L271.309 322.648L289.642 325.065L288.505 343.398L270.18 340.974ZM308.644 346.13L290.454 343.659L291.588 325.324L309.78 327.786L308.644 346.13ZM309.903 325.837L291.713 323.375L292.918 304.943L311.136 307L309.903 325.837Z" fill="#652C7D"/>
<path d="M255.992 361.38C257.006 364.961 262.587 365.305 265.559 366.079C281.327 370.21 297.354 373.284 313.533 375.279C315.786 375.561 315.766 372.023 313.533 371.741C292.057 369.046 263.698 362.615 260.594 361.066C258.998 360.269 259.209 361.066 259.885 345.726C260.853 323.885 262.425 302.082 264.076 280.28C264.247 278.01 260.709 278.02 260.539 280.28C260.772 280.28 254.807 357.195 255.992 361.38Z" fill="#652C7D"/>
<path d="M323.728 308.148L322.178 294.484C322.117 293.955 321.918 293.452 321.602 293.024C321.285 292.596 320.862 292.259 320.375 292.046C319.886 291.833 319.351 291.753 318.822 291.812C318.292 291.872 317.788 292.069 317.359 292.385L306.303 300.557C305.981 300.794 305.71 301.091 305.504 301.433C305.298 301.774 305.162 302.153 305.103 302.547C305.043 302.941 305.063 303.344 305.159 303.73C305.256 304.117 305.428 304.481 305.665 304.802C305.982 305.231 306.404 305.568 306.894 305.781L310.621 307.397C306.847 317.241 302.615 328.18 298.116 337.923C296.962 340.419 297.223 340.112 296.913 339.636C281.788 316.412 284.584 309.205 275.816 327.229C272.715 333.6 260.841 357.574 263.016 358.687C265.497 359.952 278.823 333.96 282.347 327.358C285.638 333.531 289.239 339.533 293.138 345.342C296.036 349.672 296.027 350.748 297.756 351.346C300.239 352.198 315.438 312.383 316.384 309.912C319.539 311.286 319.864 311.528 320.707 311.528C321.135 311.526 321.557 311.435 321.946 311.259C322.336 311.084 322.684 310.828 322.969 310.51C323.254 310.191 323.469 309.816 323.599 309.409C323.73 309.002 323.774 308.572 323.728 308.148Z" fill="#652C7D"/>
<path d="M272.909 297.57C287.808 298.725 294.879 300.325 296.02 300.325C298.943 300.325 299.869 295.834 296.759 295.326C289.847 294.194 275.805 292.458 272.81 292.458C269.665 292.458 269.739 297.325 272.909 297.57Z" fill="#652C7D"/>
<path d="M273.295 289.964C284.464 291.118 289.921 291.696 290.152 291.696C293.212 291.696 293.154 286.904 290.023 286.578C278.853 285.424 273.396 284.849 273.165 284.849C270.106 284.849 270.156 289.638 273.295 289.964Z" fill="#652C7D"/>
<path d="M319.156 292.575C321.846 292.575 321.37 294.32 322.945 308.236C322.982 308.55 322.951 308.869 322.855 309.171C322.759 309.473 322.6 309.751 322.389 309.986C322.18 310.224 321.922 310.415 321.633 310.545C321.344 310.676 321.031 310.742 320.714 310.741C320.098 310.741 320.167 310.704 315.953 308.869C311.674 320.024 308.152 329.24 303.441 339.519C296.999 353.577 299.195 352.995 293.791 344.915C282.28 327.698 282.663 325.384 282.275 325.834C258.966 369.536 257.179 367.338 276.523 327.578C277.417 325.73 280.449 318.006 282.816 318.008C284.711 318.008 284.044 321.324 296.255 340.073C297.509 341.999 297.144 341.839 297.629 340.828C302.744 330.143 307.663 317.32 311.625 306.984L307.208 305.061C306.845 304.904 306.53 304.654 306.296 304.337C306.061 304.019 305.914 303.645 305.871 303.253C305.828 302.86 305.888 302.464 306.046 302.102C306.203 301.74 306.453 301.426 306.769 301.19C318.922 292.215 318.144 292.575 319.156 292.575ZM319.156 290.217C317.059 290.217 317.181 290.568 305.367 299.295C304.717 299.775 304.205 300.418 303.882 301.16C303.56 301.901 303.438 302.714 303.529 303.518C303.62 304.321 303.92 305.086 304.401 305.736C304.881 306.387 305.524 306.899 306.266 307.222L308.614 308.245C305.229 317.071 300.924 328.125 296.927 336.754C285.407 318.583 286.647 315.651 282.816 315.651C278.417 315.651 275.689 323.756 270.928 333.769C262.797 350.857 257.851 360.325 263.425 360.364C266.515 360.392 271.969 350.095 282.361 330.681C285.454 336.257 288.785 341.697 292.346 346.987C293.138 346.987 293.981 351.716 297.25 352.838C300.165 353.836 300.795 350.887 305.333 341.061C319.862 309.573 315.463 311.215 318.881 312.702C319.77 313.092 320.76 313.191 321.709 312.983C322.658 312.776 323.517 312.273 324.162 311.547C325.993 309.497 325.245 307.497 324.525 301.135C323.919 295.886 324.347 290.217 319.156 290.217Z" fill="#652C7D"/>
<path d="M272.81 293.247C276.294 293.247 290.307 295.069 296.631 296.106C298.871 296.471 297.925 299.877 295.692 299.517C288.158 298.298 280.577 297.389 272.969 296.792C270.766 296.617 270.701 293.247 272.81 293.247ZM272.81 291.677C268.681 291.677 268.653 298.037 272.849 298.36C286.847 299.436 295.075 301.115 296.02 301.115C299.897 301.115 300.954 295.22 296.885 294.555C282.264 292.16 272.576 291.677 272.81 291.677Z" fill="#652C7D"/>
<path d="M273.165 285.627C273.396 285.627 273.265 285.627 289.944 287.355C292.198 287.585 292.196 291.13 289.944 290.892C284.423 290.303 278.899 289.738 273.376 289.174C271.203 288.957 271.117 285.627 273.165 285.627ZM273.165 284.055C269.106 284.055 269.094 290.313 273.214 290.751C283.374 291.802 279.613 291.444 289.782 292.467C294.17 292.906 294.378 286.244 290.106 285.803C275.059 284.242 272.932 284.055 273.165 284.055Z" fill="#652C7D"/>
<path d="M176.571 249.327C190.888 253.865 191.701 253.946 192.909 255.056C195.308 257.282 197.257 266.33 197.666 270.528C198.227 276.317 199.335 350.616 196.483 356.172C195.481 358.104 193.826 359.618 191.812 360.444C195.982 363.732 132.415 357.687 129.992 357.569C122.046 357.19 108.362 353.389 105.378 349.207C101.591 343.896 103.263 300.924 103.806 293.223C104.178 287.939 104.57 283.67 106.898 256.818C107.258 252.662 107.006 246.397 109.087 242.785C110.324 240.87 112.083 239.35 114.156 238.402C116.229 237.454 118.53 237.119 120.788 237.437C139.989 240.555 158.017 243.448 176.571 249.327Z" fill="white"/>
<path d="M123.312 268.824C119.361 258.663 130.239 268.445 131.207 268.667C132.509 268.965 133.724 267.755 134.112 266.475C134.705 264.52 133.973 259.991 137.019 259.656C138.361 259.509 138.933 260.169 146.505 265.512C148.907 259.225 149.062 258.541 149.817 257.786C150.93 256.671 152.567 256.631 153.23 259.356L156.375 272.272C161.527 267.281 168.54 264.896 169.337 269.637C169.699 271.789 167.39 273.488 167.027 275.641C175.638 270.166 178.827 273.14 177.433 276.968C176.479 279.592 173.077 281.908 173.86 284.951C174.96 287.505 176.273 289.961 177.786 292.295C183.697 288.775 190.507 296.139 186.686 303.245C185.877 304.638 184.79 305.85 183.494 306.805C182.197 307.761 180.718 308.44 179.148 308.801C180.557 310.636 181.534 312.765 182.007 315.029C182.48 317.293 182.438 319.635 181.882 321.88C181.098 323.859 180.866 326.014 181.21 328.115C181.2 330.24 180.515 332.307 179.253 334.017C177.992 335.727 176.22 336.992 174.193 337.629C176.913 341.019 179.27 344.685 181.224 348.568C183.001 352.115 184.097 355.964 184.457 359.915C184.633 361.111 183.995 361.684 182.889 362.164C179.587 363.594 126.491 355.789 118.372 356.244C117.08 356.409 115.768 356.352 114.495 356.075C113.86 355.926 113.284 355.592 112.839 355.116C112.394 354.64 112.1 354.042 111.994 353.399C113.161 348.394 115.343 343.682 118.405 339.555C122.931 334.066 129.978 331.399 136.809 329.394C135.885 325.88 126.152 325.051 126.958 303.658C111.546 296.47 118.876 282.474 126.861 285.261C126.959 285.312 127.066 285.342 127.175 285.352C127.285 285.361 127.396 285.348 127.501 285.314C130.983 283.497 132.253 291.789 123.312 268.824Z" fill="white"/>
<path d="M165.432 347.454C160.368 345.216 147.778 342.605 140.388 345.02C133.618 347.232 130.486 353.174 131.241 353.599C131.997 354.024 134.227 349.512 141.12 347.262C147.718 345.108 159.839 347.549 164.462 349.604C171.528 352.749 172.523 357.372 173.281 357.148C174.142 356.982 172.618 350.632 165.432 347.454Z" fill="#652C7D"/>
<path d="M180.555 296.618C176.966 297.101 177.414 300.516 179.386 300.65C179.714 300.565 180.134 301.419 179.908 301.969C179.428 303.123 177.677 303.899 177.918 304.324C178.107 304.825 180.592 304.43 181.381 302.491C181.524 302.144 181.586 301.769 181.564 301.395C181.542 301.021 181.435 300.656 181.252 300.329C181.069 300.002 180.814 299.72 180.507 299.505C180.2 299.29 179.849 299.147 179.479 299.087C179.443 299.038 179.426 298.978 179.432 298.918C179.439 298.858 179.468 298.802 179.513 298.761C179.857 298.237 181.499 297.741 182.076 298.729C183.61 301.329 184.046 296.147 180.555 296.618Z" fill="#652C7D"/>
<path d="M129.001 292.771C126.732 292.247 125.538 294.988 126.23 296.849C127.025 299.006 129.463 299.022 129.408 298.567C129.429 298.258 126.711 297.242 127.791 294.893C128.253 293.866 128.396 294.274 131.382 295.152C132.629 295.517 132.502 295.598 132.306 295.099C131.945 293.699 131.14 292.454 130.011 291.552C125.161 288.107 121.146 293.538 122.247 293.965C122.573 294.124 125.519 290.377 129.001 292.771Z" fill="#652C7D"/>
<path d="M200.405 290.517C200.174 263.804 203.626 253.671 177.617 247.797C135.569 238.024 113.114 228.898 106.956 242.485C105.071 246.661 105.325 251.526 105.032 256.712C99.6146 340.04 98.9033 349.774 108.671 355.316C118.407 360.8 172.151 363.934 184.393 364.001C196.026 363.885 198.499 359.112 199.236 347.915C200.522 328.166 200.532 308.931 200.405 290.517ZM113.322 352.699C115.631 341.47 126.484 333.477 137.248 330.762C138.82 331.54 140.476 332.14 142.18 332.556C144.332 334.948 147.064 336.745 150.112 337.773C154.523 339.317 167.538 341.236 173.853 339.433C179.52 345.589 181.19 351.147 182.908 359.334C168.313 359.202 121.206 355.565 113.322 352.699ZM133.874 302.308C134.394 301.707 133.481 301.516 133.615 301.767C133.631 301.811 133.668 301.864 133.631 301.906C133.354 301.643 132.696 302.368 130.86 302.527C128.94 302.507 127.05 302.043 125.338 301.173C123.625 300.303 122.137 299.049 120.989 297.509C117.987 293.556 119.603 286.268 125.545 286.305C134.424 286.104 135.936 293.639 136.553 293.464C137.07 293.415 137.111 289.674 133.752 286.601C143.746 284.455 143.145 284.58 156.186 281.719C158.894 280.795 157.966 275.904 157.527 272.891C159.486 271.363 161.644 270.11 163.942 269.166C165.24 268.866 167.503 268.949 167.889 270.425C168.196 271.715 167.09 273.26 166.099 274.54C164.044 277.161 163.192 279.195 163.559 279.41C164.037 279.943 169.032 275.212 172.939 274.099C175.779 273.503 176.848 274.413 175.851 277.052C174.775 279.964 172.833 280.086 171.925 282.58C170.77 285.679 174.003 287.575 174.498 288.185C175.31 289.178 175.865 290.353 176.114 291.612C174.963 290.477 173.569 289.618 172.039 289.099C170.509 288.579 168.881 288.412 167.277 288.611C165.673 288.809 164.135 289.367 162.777 290.244C161.419 291.121 160.277 292.293 159.437 293.674C152.558 284.647 139.284 291.134 140.432 299.608C140.45 300.086 140.614 300.547 140.904 300.928C141.193 301.308 141.593 301.59 142.049 301.735C142.059 303.316 142.542 304.858 143.436 306.163C144.33 307.467 145.593 308.474 147.064 309.055C148.706 309.681 147.925 308.515 143.979 312.595C139.023 317.759 138.042 324.864 139.913 329.085C130.396 324.236 127.725 315.057 127.891 304.377C128.981 304.612 130.114 304.544 131.167 304.179C132.221 303.814 133.163 303.167 133.874 302.308ZM124.372 265.942C126.718 266.672 130.632 271.346 133.742 269.238C135.996 267.647 135.821 261.64 137.393 261.128C139.85 259.765 145.275 271.501 148.357 264.511C148.955 263.155 150.745 256.479 151.523 258.149C153.223 259.68 155.65 275.874 155.174 278.918C155.126 279.225 156.645 278.673 133.449 283.485C130.311 284.178 131.239 284.435 129.881 281.377C132.602 280.657 137.105 279.153 140.231 278.398C168.032 271.607 142.605 274.242 128.902 279.061C127.805 276.475 126.706 273.884 125.736 271.337C123.277 264.954 123.84 265.811 124.372 265.942ZM155.472 330.138C169.226 331.755 175.775 332.584 179.825 329.15C179.722 330.417 179.311 331.64 178.627 332.711C177.942 333.782 177.006 334.669 175.899 335.295C170.105 338.729 154.814 336.138 151.121 334.865C138.125 330.633 139.003 316.853 151.431 309.203C151.243 309.975 151.218 310.777 151.359 311.558C151.93 314.56 154.412 315.198 157.377 315.551C160.989 315.902 161.203 316.371 161.862 319.246C162.818 323.294 165.094 315.396 160.601 313.473C158.522 312.533 155.504 312.549 154.738 311.625C154.476 311.163 154.371 310.628 154.437 310.1C154.504 309.573 154.739 309.081 155.107 308.697C156.703 306.748 161.998 306.474 164.73 306.388C173.26 306.275 178.086 309.607 174.971 311.649C171.969 313.623 167.376 312.838 167.914 319.731C168.032 320.493 168.131 320.927 168.346 320.98C168.561 321.033 168.87 320.636 169.131 319.855C170.149 317.11 169.547 316.546 173.62 315.433C176.216 314.655 178.58 313.718 179.007 310.815C180.299 313.537 180.847 316.553 180.596 319.555C180.148 329.683 173.941 328.33 165.194 328.192C148.413 327.485 138.749 328.173 155.472 330.138ZM148.833 308.247C147.384 307.835 146.091 307.002 145.117 305.853C144.143 304.704 143.532 303.292 143.362 301.795C145.181 301.428 147.031 301.246 148.886 301.252C149.048 302.869 148.704 304.072 151.121 303.682C153.431 303.31 152.969 302.527 152.821 301.109C156.811 301.405 157.278 302.218 158.774 301.633C158.28 304.393 158.065 303.883 156.696 304.275C155.081 304.667 153.636 305.57 152.576 306.85C148.861 308.353 149.831 308.582 148.833 308.247ZM143.028 299.885C142.633 299.955 142.524 299.936 142.455 299.885C142.266 299.846 142.062 298.985 142.141 298.292C142.455 292.519 150.819 289.171 155.765 293.235C156.702 293.799 157.46 294.616 157.954 295.591C158.448 296.566 158.657 297.661 158.557 298.749C157.656 301.077 157.262 297.08 143.028 299.885ZM160.15 300.911C160.954 301.07 163.695 300.403 167.21 300.243C167.182 300.387 167.424 301.629 167.484 302.174C167.584 302.996 171.579 303.315 171.389 301.728C171.329 301.222 171.251 300.768 171.177 300.343C173.798 300.608 174.765 301.075 175.622 301.035C172.343 307.432 173.807 301.694 159.906 303.626C160.192 302.75 160.282 301.824 160.15 300.911ZM176.052 295.422C177.068 297.47 176.098 299.031 175.377 298.745C171.496 297.93 167.489 297.913 163.6 298.696C160.116 299.253 160.986 299.818 161.033 298.41C161.13 297.346 160.928 296.276 160.451 295.32C161.227 293.929 162.363 292.772 163.739 291.97C165.116 291.167 166.682 290.749 168.275 290.759C169.868 290.769 171.43 291.207 172.796 292.026C174.162 292.845 175.293 294.021 176.052 295.422ZM176.671 306.065C174.509 304.351 174.507 305.49 175.467 304.261C176.303 303.167 176.88 301.897 177.155 300.548C178.133 299.746 178.754 298.591 178.883 297.333C179.013 296.076 178.641 294.818 177.848 293.833C181.007 290.45 185.191 293.507 185.829 297.888C186.167 300.068 185.658 302.294 184.406 304.11C183.153 305.926 181.253 307.193 179.095 307.651C178.345 307.032 177.538 306.503 176.671 306.065ZM194.583 347.612C194.073 356.015 193.234 359.177 185.284 359.336C184.931 351.233 182.393 343.774 176.373 338.484C182.187 335.637 182.998 331.127 182.737 324.693C183.528 322.072 183.73 319.308 183.328 316.599C182.926 313.89 181.93 311.304 180.411 309.025C190.66 306.804 190.447 292.184 182.259 290.438C181.104 290.191 179.9 290.328 178.83 290.829C177.696 283.763 172.392 285.649 176.345 281.924C181.478 277.179 179.756 269.251 172.151 271.621C169.149 272.761 171.108 273.029 170.766 270.027C170.389 266.564 165.542 263.483 158.499 268.591L157.005 269.72C156.132 265.046 154.523 254.355 150.297 256.057C147.916 257.068 147.226 261.402 145.974 263.889C145.335 264.899 142.875 261.303 141.651 260.121C138.959 257.525 135.77 257.53 134.073 260.881C132.796 263.469 132.708 266.905 131.805 266.792C129.062 265.935 126.14 261.887 122.702 262.964C119.264 264.04 121.443 268.843 122.813 272.445C127.782 285.651 128.586 283.529 125.547 283.407C114.387 283.044 112.343 300.156 125.688 303.959C124.254 313.637 126.612 323.442 134.463 329.085C130.03 329.978 125.846 331.827 122.201 334.503C118.556 337.178 115.539 340.617 113.359 344.578C110.412 350.42 112.022 352.24 110.858 351.582C104.053 347.737 103.914 342.322 108.048 256.879C108.493 251.073 108.119 243.776 112.484 240.814C117.128 237.53 124.953 239.627 131.308 240.874C137.312 242.028 182.432 252.556 188.115 255.653C197.647 260.767 195.775 269.771 195.851 290.535C195.897 308.931 195.844 328.058 194.583 347.612Z" fill="#652C7D"/>
<path d="M104.635 237.118C102.446 240.679 101.912 244.219 99.9216 253.975C98.6331 260.298 101.259 262.45 105.016 261.961C108.179 261.547 115.488 257.095 118.054 255.22C126.242 249.216 119.402 252.691 137.375 242.838C138.305 242.422 139.114 241.771 139.719 240.949C140.154 239.948 140.193 238.819 139.828 237.79C139.463 236.761 138.72 235.909 137.751 235.407C135.773 234.473 133.622 233.964 131.435 233.913C122.434 232.839 110.731 227.202 104.635 237.118Z" fill="white"/>
<path d="M193.177 339.455C194.086 338.626 195.169 338.013 196.347 337.66C197.415 337.514 198.502 337.693 199.468 338.173C200.433 338.652 201.232 339.411 201.76 340.351C204.12 344.193 202.894 351.345 202.167 356.053C200.506 366.763 197.354 365.798 193.967 366.659C192.867 366.939 191.849 367.507 190.734 367.733C187.662 368.357 174.107 366.941 168.531 366.08C167.078 365.849 166.201 365.235 166.452 363.38C166.988 359.362 172.74 355.49 193.177 339.455Z" fill="white"/>
<path d="M132.927 233.02L132.731 235.034C134.33 235.116 135.89 235.563 137.292 236.338C138.465 237.121 139.194 238.851 138.46 239.802C137.793 240.867 135.504 241.705 133.571 242.774C116.998 251.935 112.759 259.276 105.473 260.444C104.488 260.626 103.479 260.626 102.494 260.444C102.596 260.675 101.249 259.211 101.912 254.089C102.33 250.856 104.743 239.232 107.004 236.389C109.939 232.694 116.823 233.138 121.61 233.618C134.442 234.927 132.613 236.287 132.927 233.02C120.603 231.369 107.274 226.635 102.69 238.156C100.843 242.774 95.8805 260.038 100.765 263.077C103.362 264.427 107.537 263.451 110.283 262.116C117.442 258.627 119.843 253.526 137.705 243.541C140.377 242.047 142.035 239.959 140.811 237.128C139.451 233.962 136.366 233.309 132.927 233.02Z" fill="#652C7D"/>
<path d="M193.11 340.687C191.357 338.19 193.234 338.057 183.577 345.707C178.008 349.297 172.819 353.448 168.094 358.094C164.432 362.13 163.222 366.453 168.311 367.737C175.474 369.455 182.877 369.937 190.202 369.162C196.767 368.527 200.952 366.594 202.804 360.17C203.774 355.616 204.259 350.972 204.247 346.314C203.947 337.957 199.509 333.845 191.948 339.033L193.11 340.687C194.306 339.783 195.69 339.175 197.165 338.906C203.48 338.509 201.709 353.644 199.959 359.294C198.354 364.474 195.211 365.585 189.902 366.053C184.784 366.495 179.632 366.388 174.537 365.732C168.129 364.901 167.3 364.79 168.399 362.696C170.847 358.027 181.03 350.755 185.101 347.67C188.196 345.03 190.613 342.525 193.11 340.687Z" fill="#652C7D"/>
<path d="M10.1723 243.558C16.7881 250.784 42.6513 258.587 52.8741 254.684C88.7176 240.993 99.9819 170.786 79.5593 154.635C75.6498 151.546 60.4414 147.8 55.502 147.015C11.4631 139.979 -10.6591 220.833 10.1723 243.558Z" fill="white"/>
<path d="M76.0169 151.075C74.2273 150.401 59.2844 145.51 50.5487 145.071C11.8602 142.803 -12.5135 218.966 8.08002 243.238C15.1577 251.581 32.4399 256.132 43.3786 257.123C86.2559 261.148 107.143 162.907 76.0169 151.075ZM76.0816 173.204C79.4069 172.709 82.804 173.249 85.8126 174.749C86.9441 182.041 86.9833 189.461 85.928 196.765C78.3585 197.19 79.9772 196.162 74.7422 194.918C76.1737 187.774 76.6243 180.469 76.0816 173.204ZM85.2376 171.675C79.8248 171.976 80.4668 171.419 75.6751 169.881C72.7217 152.608 64.838 152.026 69.6227 153.516C75.3773 155.335 81.8661 156.102 85.2376 171.675ZM15.9105 244.924C1.18011 236.855 2.76192 209.057 7.25795 192.809C13.1764 171.417 30.1399 147.861 50.3339 149.119C54.6152 149.472 58.8456 150.274 62.9583 151.518C77.6287 161.667 74.4282 187.953 69.3595 205.092C63.1454 225.644 51.6548 248.616 30.4655 250.5C25.4325 249.154 20.5543 247.285 15.9105 244.924ZM36.1877 251.84C41.8484 250.417 47.0566 247.584 51.3269 243.605C55.7144 244.385 56.4995 243.169 62.0762 246C51.7864 254.629 44.4593 253.426 36.1877 251.84ZM64.651 243.658C58.7971 242.822 59.6446 243.658 53.9317 240.945C58.3605 235.838 62.0881 230.162 65.0158 224.069C69.1055 224.681 68.9761 222.831 77.0237 225.863C73.9782 232.476 69.7897 238.5 64.651 243.658ZM78.4069 222.898C70.9782 222.829 74.0194 223.314 66.563 220.806C69.796 213.609 72.2979 206.104 74.031 198.407C79.1852 198.693 78.2107 197.174 85.48 199.635C84.07 207.647 81.695 215.458 78.4069 222.898Z" fill="#652C7D"/>
<path d="M26.5238 243.397C58.4347 247.554 82.7853 166.926 56.1532 155.825C38.9519 148.436 20.9863 171.112 15.2225 188.738C13.3267 194.527 16.1046 187.914 18.6448 183.125C33.4653 155.523 54.0842 150.244 61.1711 164.455C75.9824 193.703 41.8685 257.222 19.2683 237.363C1.52662 221.631 19.2683 179.072 13.4952 193.488C6.00186 212.172 8.04551 240.679 26.5238 243.397Z" fill="#652C7D"/>
<path d="M30.4748 208.86C30.6226 208.468 31.2599 208.89 22.7274 205.658C22.4965 205.57 22.7066 205.362 18.7555 215.839C18.6378 216.155 18.6447 215.654 19.349 222.074C19.379 222.362 18.3722 221.87 35.077 228.165C35.3079 228.258 35.4049 228.008 39.6654 224.127C39.8963 223.907 39.3537 225.189 47.5768 203.344C47.7107 202.988 47.6922 203.459 47.0018 197.132C46.9625 196.762 47.8123 197.192 36.5826 192.992C36.3517 192.904 36.3194 193.31 40.2774 182.755C40.4205 182.374 39.9056 182.346 45.5724 184.457C45.8033 184.54 45.5724 184.803 43.8127 189.458C43.6557 189.872 43.0438 189.44 51.5509 192.668C51.7818 192.758 51.5509 193.033 55.5158 182.526C55.659 182.143 55.6313 182.6 54.9478 176.335C54.9062 175.95 39.2775 170.174 39.0419 170.1C39.0165 170.1 38.9888 170.077 38.9657 170.147C38.8364 170.558 34.4374 174.118 34.2088 174.73C26.0803 196.361 26.5075 195.051 26.5445 195.375C27.1818 201.007 27.1102 201.346 27.3481 201.436C38.6794 205.683 37.7926 205.189 37.6356 205.609C33.7608 215.873 33.9224 215.82 33.6915 215.733C28.2002 213.643 28.5466 213.943 28.6851 213.576L30.4748 208.86Z" fill="#652C7D"/>
<path d="M390.635 223.124C385.73 223.898 371.831 227.168 367.637 230.447C360.606 235.947 358.604 248.482 358.188 257.465C356.477 294.449 381.28 326.314 398.888 326.314C408.18 326.314 427.34 321.312 433.413 314.71C452.983 293.428 432.861 216.46 390.635 223.124Z" fill="white"/>
<path d="M395.32 221.213C386.719 221.638 372.071 226.524 371.141 226.873C347.898 235.648 353.741 297.304 381.878 320.47C386.106 323.982 391.12 326.42 396.493 327.577C402.841 328.427 414.586 325.58 421.17 323.169C431.141 319.553 432.859 317.516 436.221 313.528C454.385 284.409 429.737 219.266 395.32 221.213ZM368.926 232.893C371.364 231.042 374.196 229.777 377.202 229.198C381.8 227.792 374.256 228.374 371.429 244.718C366.915 246.164 367.469 246.702 362.349 246.404C363.386 241.716 365.271 236.082 368.926 232.893ZM361.802 249.323C364.659 247.903 367.884 247.397 371.039 247.875C370.51 254.768 370.924 261.701 372.27 268.482C367.321 269.651 368.806 270.642 361.647 270.214C360.662 263.281 360.714 256.24 361.802 249.323ZM362.072 272.944C369.035 270.607 367.935 272.069 372.937 271.789C374.568 279.097 376.93 286.222 379.987 293.057C373.829 295.117 376.292 294.974 368.741 295.022C365.637 287.958 363.398 280.545 362.072 272.944ZM370.044 297.844C377.738 294.969 377.616 296.726 381.449 296.163C384.218 301.948 387.744 307.339 391.933 312.196C386.409 314.817 387.213 313.976 381.756 314.752C376.888 309.849 372.923 304.125 370.044 297.844ZM384.195 316.978C389.37 314.359 390.589 315.394 394.404 314.724C398.447 318.514 403.387 321.216 408.76 322.576C400.576 324.125 393.868 325.127 384.195 316.978ZM438.754 295.373C436.888 312.267 430.079 317.006 414.194 321.312C407.837 320.673 401.841 318.057 397.05 313.831C378.114 296.766 362.248 241.973 383.534 227.314C397.969 223.294 403.571 224.843 411.547 229.736C429.199 241.208 441.468 268.499 438.754 295.373Z" fill="#652C7D"/>
<path d="M430.386 267.221C425.603 255.163 441.193 294.403 424.844 308.852C403.169 327.815 371.203 267.127 385.211 239.596C387.751 234.516 391.85 231.731 398.918 232.646C410.584 234.2 420.02 247.074 425.536 257.391C427.961 261.991 430.552 268.196 428.769 262.723C423.352 246.041 406.37 224.42 389.986 231.417C381.463 234.948 378.726 248.967 379.167 258.488C380.213 273.062 385.008 287.119 393.087 299.294C408.737 322.123 429.418 318.359 433.531 296.061C435.05 286.339 433.965 276.387 430.386 267.221Z" fill="#652C7D"/>
<path d="M406.338 275.781C402.798 275.529 399.386 274.354 396.443 272.372C395.718 271.883 395.868 272.155 395.78 271.261C394.574 258.813 394.378 260.992 395.062 242.339C401.209 247.091 403.53 248.742 417.117 264.121C419.147 266.417 413.711 270.857 412.316 272.511C411.621 273.462 410.726 274.249 409.693 274.815C408.659 275.379 407.513 275.709 406.338 275.781ZM398.717 270.238C401.003 271.659 403.594 272.52 406.275 272.753C407.012 272.664 407.723 272.423 408.363 272.045C409.002 271.668 409.556 271.162 409.991 270.559C411.566 269.017 413.032 267.368 414.378 265.622C403.906 253.832 401.366 251.409 397.865 248.444C397.419 255.716 397.703 263.022 398.717 270.238Z" fill="#652C7D"/>
<path d="M416.992 302.75C409.275 299.559 404.086 287.883 396.389 276.321C408.166 278.466 407.834 283.14 414.17 275.739C416.667 272.83 414.223 275.312 420.137 268.581C422.301 278.252 420.197 300.769 417.708 302.295L416.992 302.75ZM403.051 281.321C404.365 283.718 412.124 296.1 416.156 298.887C417.064 293.594 417.68 288.257 418.004 282.898C417.967 274.058 418.987 274.788 416.475 277.716C411.288 283.78 408.52 283.676 403.051 281.321Z" fill="#652C7D"/>
</svg>
