<svg width="80" height="80" viewBox="0 0 80 80" fill="none" xmlns="http://www.w3.org/2000/svg">
<rect width="80" height="80" fill="white"/>
<path d="M30.1624 4.79993H27.3193V7.64298H30.1624V4.79993Z" fill="black"/>
<path d="M38.6067 4.79993H35.7637V7.64298H38.6067V4.79993Z" fill="black"/>
<path d="M44.2361 4.79993H41.3931V7.64298H44.2361V4.79993Z" fill="black"/>
<path d="M47.0515 4.79993H44.2085V7.64298H47.0515V4.79993Z" fill="black"/>
<path d="M49.866 4.79993H47.0229V7.64298H49.866V4.79993Z" fill="black"/>
<path d="M52.6809 4.79993H49.8379V7.64298H52.6809V4.79993Z" fill="black"/>
<path d="M32.9763 7.61487H30.1333V10.4579H32.9763V7.61487Z" fill="black"/>
<path d="M41.4217 7.61487H38.5786V10.4579H41.4217V7.61487Z" fill="black"/>
<path d="M44.2361 7.61487H41.3931V10.4579H44.2361V7.61487Z" fill="black"/>
<path d="M47.0515 7.61487H44.2085V10.4579H47.0515V7.61487Z" fill="black"/>
<path d="M35.7918 10.4297H32.9487V13.2727H35.7918V10.4297Z" fill="black"/>
<path d="M49.866 10.4297H47.0229V13.2727H49.866V10.4297Z" fill="black"/>
<path d="M52.6809 10.4297H49.8379V13.2727H52.6809V10.4297Z" fill="black"/>
<path d="M18.8885 10.444H10.4438V18.8887H18.8885V10.444Z" fill="black"/>
<path d="M23.1106 6.22156H6.22119V23.111H23.1106V6.22156Z" stroke="black" stroke-width="0.852923"/>
<path d="M30.1624 13.2445H27.3193V16.0876H30.1624V13.2445Z" fill="black"/>
<path d="M32.9763 13.2445H30.1333V16.0876H32.9763V13.2445Z" fill="black"/>
<path d="M38.6067 13.2445H35.7637V16.0876H38.6067V13.2445Z" fill="black"/>
<path d="M41.4217 13.2445H38.5786V16.0876H41.4217V13.2445Z" fill="black"/>
<path d="M44.2361 13.2445H41.3931V16.0876H44.2361V13.2445Z" fill="black"/>
<path d="M47.0515 13.2445H44.2085V16.0876H47.0515V13.2445Z" fill="black"/>
<path d="M69.556 10.4437H61.1113V18.8884H69.556V10.4437Z" fill="black"/>
<path d="M73.7781 6.22144H56.8887V23.1108H73.7781V6.22144Z" stroke="black" stroke-width="0.852923"/>
<path d="M30.1624 16.0594H27.3193V18.9025H30.1624V16.0594Z" fill="black"/>
<path d="M35.7918 16.0594H32.9487V18.9025H35.7918V16.0594Z" fill="black"/>
<path d="M41.4217 16.0594H38.5786V18.9025H41.4217V16.0594Z" fill="black"/>
<path d="M44.2361 16.0594H41.3931V18.9025H44.2361V16.0594Z" fill="black"/>
<path d="M47.0515 16.0594H44.2085V18.9025H47.0515V16.0594Z" fill="black"/>
<path d="M49.866 16.0594H47.0229V18.9025H49.866V16.0594Z" fill="black"/>
<path d="M30.1624 18.8744H27.3193V21.7174H30.1624V18.8744Z" fill="black"/>
<path d="M41.4217 18.8744H38.5786V21.7174H41.4217V18.8744Z" fill="black"/>
<path d="M49.866 18.8744H47.0229V21.7174H49.866V18.8744Z" fill="black"/>
<path d="M30.1624 21.6892H27.3193V24.5323H30.1624V21.6892Z" fill="black"/>
<path d="M35.7918 21.6892H32.9487V24.5323H35.7918V21.6892Z" fill="black"/>
<path d="M41.4217 21.6892H38.5786V24.5323H41.4217V21.6892Z" fill="black"/>
<path d="M47.0515 21.6892H44.2085V24.5323H47.0515V21.6892Z" fill="black"/>
<path d="M52.6809 21.6892H49.8379V24.5323H52.6809V21.6892Z" fill="black"/>
<path d="M30.1624 24.504H27.3193V27.3471H30.1624V24.504Z" fill="black"/>
<path d="M32.9763 24.504H30.1333V27.3471H32.9763V24.504Z" fill="black"/>
<path d="M35.7918 24.504H32.9487V27.3471H35.7918V24.504Z" fill="black"/>
<path d="M38.6067 24.504H35.7637V27.3471H38.6067V24.504Z" fill="black"/>
<path d="M41.4217 24.504H38.5786V27.3471H41.4217V24.504Z" fill="black"/>
<path d="M44.2361 24.504H41.3931V27.3471H44.2361V24.504Z" fill="black"/>
<path d="M47.0515 24.504H44.2085V27.3471H47.0515V24.504Z" fill="black"/>
<path d="M49.866 24.504H47.0229V27.3471H49.866V24.504Z" fill="black"/>
<path d="M7.64285 27.3188H4.7998V30.1619H7.64285V27.3188Z" fill="black"/>
<path d="M10.4583 27.3188H7.61523V30.1619H10.4583V27.3188Z" fill="black"/>
<path d="M13.2727 27.3188H10.4297V30.1619H13.2727V27.3188Z" fill="black"/>
<path d="M18.9026 27.3188H16.0596V30.1619H18.9026V27.3188Z" fill="black"/>
<path d="M24.532 27.3188H21.689V30.1619H24.532V27.3188Z" fill="black"/>
<path d="M30.1624 27.3188H27.3193V30.1619H30.1624V27.3188Z" fill="black"/>
<path d="M32.9763 27.3188H30.1333V30.1619H32.9763V27.3188Z" fill="black"/>
<path d="M35.7918 27.3188H32.9487V30.1619H35.7918V27.3188Z" fill="black"/>
<path d="M44.2361 27.3188H41.3931V30.1619H44.2361V27.3188Z" fill="black"/>
<path d="M47.0515 27.3188H44.2085V30.1619H47.0515V27.3188Z" fill="black"/>
<path d="M49.866 27.3188H47.0229V30.1619H49.866V27.3188Z" fill="black"/>
<path d="M55.4959 27.3188H52.6528V30.1619H55.4959V27.3188Z" fill="black"/>
<path d="M58.3108 27.3188H55.4678V30.1619H58.3108V27.3188Z" fill="black"/>
<path d="M61.1258 27.3188H58.2827V30.1619H61.1258V27.3188Z" fill="black"/>
<path d="M63.9407 27.3188H61.0977V30.1619H63.9407V27.3188Z" fill="black"/>
<path d="M66.7552 27.3188H63.9121V30.1619H66.7552V27.3188Z" fill="black"/>
<path d="M75.2 27.3188H72.3569V30.1619H75.2V27.3188Z" fill="black"/>
<path d="M10.4583 30.1338H7.61523V32.9768H10.4583V30.1338Z" fill="black"/>
<path d="M13.2727 30.1338H10.4297V32.9768H13.2727V30.1338Z" fill="black"/>
<path d="M16.0872 30.1338H13.2441V32.9768H16.0872V30.1338Z" fill="black"/>
<path d="M18.9026 30.1338H16.0596V32.9768H18.9026V30.1338Z" fill="black"/>
<path d="M30.1624 30.1338H27.3193V32.9768H30.1624V30.1338Z" fill="black"/>
<path d="M35.7918 30.1338H32.9487V32.9768H35.7918V30.1338Z" fill="black"/>
<path d="M38.6067 30.1338H35.7637V32.9768H38.6067V30.1338Z" fill="black"/>
<path d="M41.4217 30.1338H38.5786V32.9768H41.4217V30.1338Z" fill="black"/>
<path d="M47.0515 30.1338H44.2085V32.9768H47.0515V30.1338Z" fill="black"/>
<path d="M52.6809 30.1338H49.8379V32.9768H52.6809V30.1338Z" fill="black"/>
<path d="M58.3108 30.1338H55.4678V32.9768H58.3108V30.1338Z" fill="black"/>
<path d="M61.1258 30.1338H58.2827V32.9768H61.1258V30.1338Z" fill="black"/>
<path d="M66.7552 30.1338H63.9121V32.9768H66.7552V30.1338Z" fill="black"/>
<path d="M69.5706 30.1338H66.7275V32.9768H69.5706V30.1338Z" fill="black"/>
<path d="M7.64285 32.9486H4.7998V35.7917H7.64285V32.9486Z" fill="black"/>
<path d="M16.0872 32.9486H13.2441V35.7917H16.0872V32.9486Z" fill="black"/>
<path d="M21.7171 32.9486H18.874V35.7917H21.7171V32.9486Z" fill="black"/>
<path d="M24.532 32.9486H21.689V35.7917H24.532V32.9486Z" fill="black"/>
<path d="M27.347 32.9486H24.5039V35.7917H27.347V32.9486Z" fill="black"/>
<path d="M30.1624 32.9486H27.3193V35.7917H30.1624V32.9486Z" fill="black"/>
<path d="M32.9763 32.9486H30.1333V35.7917H32.9763V32.9486Z" fill="black"/>
<path d="M35.7918 32.9486H32.9487V35.7917H35.7918V32.9486Z" fill="black"/>
<path d="M38.6067 32.9486H35.7637V35.7917H38.6067V32.9486Z" fill="black"/>
<path d="M41.4217 32.9486H38.5786V35.7917H41.4217V32.9486Z" fill="black"/>
<path d="M44.2361 32.9486H41.3931V35.7917H44.2361V32.9486Z" fill="black"/>
<path d="M55.4959 32.9486H52.6528V35.7917H55.4959V32.9486Z" fill="black"/>
<path d="M61.1258 32.9486H58.2827V35.7917H61.1258V32.9486Z" fill="black"/>
<path d="M69.5706 32.9486H66.7275V35.7917H69.5706V32.9486Z" fill="black"/>
<path d="M72.3845 32.9486H69.5415V35.7917H72.3845V32.9486Z" fill="black"/>
<path d="M75.2 32.9486H72.3569V35.7917H75.2V32.9486Z" fill="black"/>
<path d="M10.4583 35.7635H7.61523V38.6066H10.4583V35.7635Z" fill="black"/>
<path d="M16.0872 35.7635H13.2441V38.6066H16.0872V35.7635Z" fill="black"/>
<path d="M18.9026 35.7635H16.0596V38.6066H18.9026V35.7635Z" fill="black"/>
<path d="M30.1624 35.7635H27.3193V38.6066H30.1624V35.7635Z" fill="black"/>
<path d="M35.7918 35.7635H32.9487V38.6066H35.7918V35.7635Z" fill="black"/>
<path d="M41.4217 35.7635H38.5786V38.6066H41.4217V35.7635Z" fill="black"/>
<path d="M52.6809 35.7635H49.8379V38.6066H52.6809V35.7635Z" fill="black"/>
<path d="M58.3108 35.7635H55.4678V38.6066H58.3108V35.7635Z" fill="black"/>
<path d="M61.1258 35.7635H58.2827V38.6066H61.1258V35.7635Z" fill="black"/>
<path d="M66.7552 35.7635H63.9121V38.6066H66.7552V35.7635Z" fill="black"/>
<path d="M69.5706 35.7635H66.7275V38.6066H69.5706V35.7635Z" fill="black"/>
<path d="M72.3845 35.7635H69.5415V38.6066H72.3845V35.7635Z" fill="black"/>
<path d="M75.2 35.7635H72.3569V38.6066H75.2V35.7635Z" fill="black"/>
<path d="M10.4583 38.5785H7.61523V41.4215H10.4583V38.5785Z" fill="black"/>
<path d="M13.2727 38.5785H10.4297V41.4215H13.2727V38.5785Z" fill="black"/>
<path d="M18.9026 38.5785H16.0596V41.4215H18.9026V38.5785Z" fill="black"/>
<path d="M21.7171 38.5785H18.874V41.4215H21.7171V38.5785Z" fill="black"/>
<path d="M24.532 38.5785H21.689V41.4215H24.532V38.5785Z" fill="black"/>
<path d="M27.347 38.5785H24.5039V41.4215H27.347V38.5785Z" fill="black"/>
<path d="M30.1624 38.5785H27.3193V41.4215H30.1624V38.5785Z" fill="black"/>
<path d="M32.9763 38.5785H30.1333V41.4215H32.9763V38.5785Z" fill="black"/>
<path d="M35.7918 38.5785H32.9487V41.4215H35.7918V38.5785Z" fill="black"/>
<path d="M41.4217 38.5785H38.5786V41.4215H41.4217V38.5785Z" fill="black"/>
<path d="M44.2361 38.5785H41.3931V41.4215H44.2361V38.5785Z" fill="black"/>
<path d="M49.866 38.5785H47.0229V41.4215H49.866V38.5785Z" fill="black"/>
<path d="M52.6809 38.5785H49.8379V41.4215H52.6809V38.5785Z" fill="black"/>
<path d="M58.3108 38.5785H55.4678V41.4215H58.3108V38.5785Z" fill="black"/>
<path d="M63.9407 38.5785H61.0977V41.4215H63.9407V38.5785Z" fill="black"/>
<path d="M72.3845 38.5785H69.5415V41.4215H72.3845V38.5785Z" fill="black"/>
<path d="M75.2 38.5785H72.3569V41.4215H75.2V38.5785Z" fill="black"/>
<path d="M10.4583 41.3933H7.61523V44.2364H10.4583V41.3933Z" fill="black"/>
<path d="M13.2727 41.3933H10.4297V44.2364H13.2727V41.3933Z" fill="black"/>
<path d="M16.0872 41.3933H13.2441V44.2364H16.0872V41.3933Z" fill="black"/>
<path d="M18.9026 41.3933H16.0596V44.2364H18.9026V41.3933Z" fill="black"/>
<path d="M21.7171 41.3933H18.874V44.2364H21.7171V41.3933Z" fill="black"/>
<path d="M27.347 41.3933H24.5039V44.2364H27.347V41.3933Z" fill="black"/>
<path d="M32.9763 41.3933H30.1333V44.2364H32.9763V41.3933Z" fill="black"/>
<path d="M44.2361 41.3933H41.3931V44.2364H44.2361V41.3933Z" fill="black"/>
<path d="M47.0515 41.3933H44.2085V44.2364H47.0515V41.3933Z" fill="black"/>
<path d="M52.6809 41.3933H49.8379V44.2364H52.6809V41.3933Z" fill="black"/>
<path d="M61.1258 41.3933H58.2827V44.2364H61.1258V41.3933Z" fill="black"/>
<path d="M69.5706 41.3933H66.7275V44.2364H69.5706V41.3933Z" fill="black"/>
<path d="M7.64285 44.2081H4.7998V47.0512H7.64285V44.2081Z" fill="black"/>
<path d="M13.2727 44.2081H10.4297V47.0512H13.2727V44.2081Z" fill="black"/>
<path d="M16.0872 44.2081H13.2441V47.0512H16.0872V44.2081Z" fill="black"/>
<path d="M18.9026 44.2081H16.0596V47.0512H18.9026V44.2081Z" fill="black"/>
<path d="M21.7171 44.2081H18.874V47.0512H21.7171V44.2081Z" fill="black"/>
<path d="M24.532 44.2081H21.689V47.0512H24.532V44.2081Z" fill="black"/>
<path d="M30.1624 44.2081H27.3193V47.0512H30.1624V44.2081Z" fill="black"/>
<path d="M32.9763 44.2081H30.1333V47.0512H32.9763V44.2081Z" fill="black"/>
<path d="M38.6067 44.2081H35.7637V47.0512H38.6067V44.2081Z" fill="black"/>
<path d="M47.0515 44.2081H44.2085V47.0512H47.0515V44.2081Z" fill="black"/>
<path d="M61.1258 44.2081H58.2827V47.0512H61.1258V44.2081Z" fill="black"/>
<path d="M63.9407 44.2081H61.0977V47.0512H63.9407V44.2081Z" fill="black"/>
<path d="M66.7552 44.2081H63.9121V47.0512H66.7552V44.2081Z" fill="black"/>
<path d="M16.0872 47.0229H13.2441V49.866H16.0872V47.0229Z" fill="black"/>
<path d="M27.347 47.0229H24.5039V49.866H27.347V47.0229Z" fill="black"/>
<path d="M30.1624 47.0229H27.3193V49.866H30.1624V47.0229Z" fill="black"/>
<path d="M32.9763 47.0229H30.1333V49.866H32.9763V47.0229Z" fill="black"/>
<path d="M35.7918 47.0229H32.9487V49.866H35.7918V47.0229Z" fill="black"/>
<path d="M38.6067 47.0229H35.7637V49.866H38.6067V47.0229Z" fill="black"/>
<path d="M44.2361 47.0229H41.3931V49.866H44.2361V47.0229Z" fill="black"/>
<path d="M47.0515 47.0229H44.2085V49.866H47.0515V47.0229Z" fill="black"/>
<path d="M49.866 47.0229H47.0229V49.866H49.866V47.0229Z" fill="black"/>
<path d="M52.6809 47.0229H49.8379V49.866H52.6809V47.0229Z" fill="black"/>
<path d="M61.1258 47.0229H58.2827V49.866H61.1258V47.0229Z" fill="black"/>
<path d="M63.9407 47.0229H61.0977V49.866H63.9407V47.0229Z" fill="black"/>
<path d="M66.7552 47.0229H63.9121V49.866H66.7552V47.0229Z" fill="black"/>
<path d="M72.3845 47.0229H69.5415V49.866H72.3845V47.0229Z" fill="black"/>
<path d="M10.4583 49.8379H7.61523V52.6809H10.4583V49.8379Z" fill="black"/>
<path d="M16.0872 49.8379H13.2441V52.6809H16.0872V49.8379Z" fill="black"/>
<path d="M18.9026 49.8379H16.0596V52.6809H18.9026V49.8379Z" fill="black"/>
<path d="M24.532 49.8379H21.689V52.6809H24.532V49.8379Z" fill="black"/>
<path d="M30.1624 49.8379H27.3193V52.6809H30.1624V49.8379Z" fill="black"/>
<path d="M41.4217 49.8379H38.5786V52.6809H41.4217V49.8379Z" fill="black"/>
<path d="M47.0515 49.8379H44.2085V52.6809H47.0515V49.8379Z" fill="black"/>
<path d="M49.866 49.8379H47.0229V52.6809H49.866V49.8379Z" fill="black"/>
<path d="M52.6809 49.8379H49.8379V52.6809H52.6809V49.8379Z" fill="black"/>
<path d="M55.4959 49.8379H52.6528V52.6809H55.4959V49.8379Z" fill="black"/>
<path d="M58.3108 49.8379H55.4678V52.6809H58.3108V49.8379Z" fill="black"/>
<path d="M61.1258 49.8379H58.2827V52.6809H61.1258V49.8379Z" fill="black"/>
<path d="M63.9407 49.8379H61.0977V52.6809H63.9407V49.8379Z" fill="black"/>
<path d="M66.7552 49.8379H63.9121V52.6809H66.7552V49.8379Z" fill="black"/>
<path d="M75.2 49.8379H72.3569V52.6809H75.2V49.8379Z" fill="black"/>
<path d="M30.1624 52.6527H27.3193V55.4958H30.1624V52.6527Z" fill="black"/>
<path d="M35.7918 52.6527H32.9487V55.4958H35.7918V52.6527Z" fill="black"/>
<path d="M44.2361 52.6527H41.3931V55.4958H44.2361V52.6527Z" fill="black"/>
<path d="M47.0515 52.6527H44.2085V55.4958H47.0515V52.6527Z" fill="black"/>
<path d="M52.6809 52.6527H49.8379V55.4958H52.6809V52.6527Z" fill="black"/>
<path d="M63.9407 52.6527H61.0977V55.4958H63.9407V52.6527Z" fill="black"/>
<path d="M66.7552 52.6527H63.9121V55.4958H66.7552V52.6527Z" fill="black"/>
<path d="M69.5706 52.6527H66.7275V55.4958H69.5706V52.6527Z" fill="black"/>
<path d="M72.3845 52.6527H69.5415V55.4958H72.3845V52.6527Z" fill="black"/>
<path d="M75.2 52.6527H72.3569V55.4958H75.2V52.6527Z" fill="black"/>
<path d="M38.6067 55.4677H35.7637V58.3107H38.6067V55.4677Z" fill="black"/>
<path d="M41.4217 55.4677H38.5786V58.3107H41.4217V55.4677Z" fill="black"/>
<path d="M47.0515 55.4677H44.2085V58.3107H47.0515V55.4677Z" fill="black"/>
<path d="M49.866 55.4677H47.0229V58.3107H49.866V55.4677Z" fill="black"/>
<path d="M52.6809 55.4677H49.8379V58.3107H52.6809V55.4677Z" fill="black"/>
<path d="M58.3108 55.4677H55.4678V58.3107H58.3108V55.4677Z" fill="black"/>
<path d="M63.9407 55.4677H61.0977V58.3107H63.9407V55.4677Z" fill="black"/>
<path d="M66.7552 55.4677H63.9121V58.3107H66.7552V55.4677Z" fill="black"/>
<path d="M75.2 55.4677H72.3569V58.3107H75.2V55.4677Z" fill="black"/>
<path d="M32.9763 58.2826H30.1333V61.1256H32.9763V58.2826Z" fill="black"/>
<path d="M35.7918 58.2826H32.9487V61.1256H35.7918V58.2826Z" fill="black"/>
<path d="M38.6067 58.2826H35.7637V61.1256H38.6067V58.2826Z" fill="black"/>
<path d="M41.4217 58.2826H38.5786V61.1256H41.4217V58.2826Z" fill="black"/>
<path d="M49.866 58.2826H47.0229V61.1256H49.866V58.2826Z" fill="black"/>
<path d="M52.6809 58.2826H49.8379V61.1256H52.6809V58.2826Z" fill="black"/>
<path d="M63.9407 58.2826H61.0977V61.1256H63.9407V58.2826Z" fill="black"/>
<path d="M72.3845 58.2826H69.5415V61.1256H72.3845V58.2826Z" fill="black"/>
<path d="M30.1624 61.0974H27.3193V63.9405H30.1624V61.0974Z" fill="black"/>
<path d="M32.9763 61.0974H30.1333V63.9405H32.9763V61.0974Z" fill="black"/>
<path d="M44.2361 61.0974H41.3931V63.9405H44.2361V61.0974Z" fill="black"/>
<path d="M47.0515 61.0974H44.2085V63.9405H47.0515V61.0974Z" fill="black"/>
<path d="M52.6809 61.0974H49.8379V63.9405H52.6809V61.0974Z" fill="black"/>
<path d="M55.4959 61.0974H52.6528V63.9405H55.4959V61.0974Z" fill="black"/>
<path d="M58.3108 61.0974H55.4678V63.9405H58.3108V61.0974Z" fill="black"/>
<path d="M61.1258 61.0974H58.2827V63.9405H61.1258V61.0974Z" fill="black"/>
<path d="M63.9407 61.0974H61.0977V63.9405H63.9407V61.0974Z" fill="black"/>
<path d="M69.5706 61.0974H66.7275V63.9405H69.5706V61.0974Z" fill="black"/>
<path d="M72.3845 61.0974H69.5415V63.9405H72.3845V61.0974Z" fill="black"/>
<path d="M18.8885 61.1115H10.4438V69.5561H18.8885V61.1115Z" fill="black"/>
<path d="M23.1106 56.8892H6.22119V73.7786H23.1106V56.8892Z" stroke="black" stroke-width="0.852923"/>
<path d="M32.9763 63.9122H30.1333V66.7553H32.9763V63.9122Z" fill="black"/>
<path d="M35.7918 63.9122H32.9487V66.7553H35.7918V63.9122Z" fill="black"/>
<path d="M38.6067 63.9122H35.7637V66.7553H38.6067V63.9122Z" fill="black"/>
<path d="M47.0515 63.9122H44.2085V66.7553H47.0515V63.9122Z" fill="black"/>
<path d="M49.866 63.9122H47.0229V66.7553H49.866V63.9122Z" fill="black"/>
<path d="M69.5706 63.9122H66.7275V66.7553H69.5706V63.9122Z" fill="black"/>
<path d="M75.2 63.9122H72.3569V66.7553H75.2V63.9122Z" fill="black"/>
<path d="M30.1624 66.7272H27.3193V69.5702H30.1624V66.7272Z" fill="black"/>
<path d="M32.9763 66.7272H30.1333V69.5702H32.9763V66.7272Z" fill="black"/>
<path d="M38.6067 66.7272H35.7637V69.5702H38.6067V66.7272Z" fill="black"/>
<path d="M47.0515 66.7272H44.2085V69.5702H47.0515V66.7272Z" fill="black"/>
<path d="M49.866 66.7272H47.0229V69.5702H49.866V66.7272Z" fill="black"/>
<path d="M52.6809 66.7272H49.8379V69.5702H52.6809V66.7272Z" fill="black"/>
<path d="M55.4959 66.7272H52.6528V69.5702H55.4959V66.7272Z" fill="black"/>
<path d="M69.5706 66.7272H66.7275V69.5702H69.5706V66.7272Z" fill="black"/>
<path d="M72.3845 66.7272H69.5415V69.5702H72.3845V66.7272Z" fill="black"/>
<path d="M30.1624 69.542H27.3193V72.385H30.1624V69.542Z" fill="black"/>
<path d="M32.9763 69.542H30.1333V72.385H32.9763V69.542Z" fill="black"/>
<path d="M38.6067 69.542H35.7637V72.385H38.6067V69.542Z" fill="black"/>
<path d="M44.2361 69.542H41.3931V72.385H44.2361V69.542Z" fill="black"/>
<path d="M47.0515 69.542H44.2085V72.385H47.0515V69.542Z" fill="black"/>
<path d="M52.6809 69.542H49.8379V72.385H52.6809V69.542Z" fill="black"/>
<path d="M55.4959 69.542H52.6528V72.385H55.4959V69.542Z" fill="black"/>
<path d="M66.7552 69.542H63.9121V72.385H66.7552V69.542Z" fill="black"/>
<path d="M69.5706 69.542H66.7275V72.385H69.5706V69.542Z" fill="black"/>
<path d="M72.3845 69.542H69.5415V72.385H72.3845V69.542Z" fill="black"/>
<path d="M30.1624 72.3568H27.3193V75.1999H30.1624V72.3568Z" fill="black"/>
<path d="M35.7918 72.3568H32.9487V75.1999H35.7918V72.3568Z" fill="black"/>
<path d="M38.6067 72.3568H35.7637V75.1999H38.6067V72.3568Z" fill="black"/>
<path d="M41.4217 72.3568H38.5786V75.1999H41.4217V72.3568Z" fill="black"/>
<path d="M47.0515 72.3568H44.2085V75.1999H47.0515V72.3568Z" fill="black"/>
<path d="M49.866 72.3568H47.0229V75.1999H49.866V72.3568Z" fill="black"/>
<path d="M58.3108 72.3568H55.4678V75.1999H58.3108V72.3568Z" fill="black"/>
<path d="M66.7552 72.3568H63.9121V75.1999H66.7552V72.3568Z" fill="black"/>
<path d="M69.5706 72.3568H66.7275V75.1999H69.5706V72.3568Z" fill="black"/>
<path d="M72.3845 72.3568H69.5415V75.1999H72.3845V72.3568Z" fill="black"/>
<path d="M75.2 72.3568H72.3569V75.1999H75.2V72.3568Z" fill="black"/>
</svg>
