<svg width="22" height="22" viewBox="0 0 22 22" fill="none" xmlns="http://www.w3.org/2000/svg">
<path d="M9.21428 1.42822L10.2881 0.344238C10.7427 -0.114746 11.4779 -0.114746 11.9278 0.344238L21.3307 9.83154C21.7854 10.2905 21.7854 11.0327 21.3307 11.4868L11.9278 20.979C11.4731 21.438 10.7379 21.438 10.2881 20.979L9.21428 19.895C8.75478 19.4312 8.76445 18.6743 9.23363 18.2202L15.0621 12.6147H1.16085C0.517547 12.6147 0 12.0923 0 11.4429V9.88037C0 9.23096 0.517547 8.7085 1.16085 8.7085H15.0621L9.23363 3.10303C8.75961 2.64893 8.74994 1.89209 9.21428 1.42822Z" fill="white"/>
</svg>
