<svg width="512" height="512" viewBox="0 0 512 512" fill="none" xmlns="http://www.w3.org/2000/svg">
<path d="M300.473 428.816C303.585 425.598 305.4 421.35 305.4 416.973V150.89H204.779V503.607C204.779 511.073 213.856 514.806 219.172 509.528L300.473 428.816Z" fill="url(#paint0_linear_475_1150)"/>
<path d="M204.779 100.719H305.4V100.621H416.973C421.479 100.621 425.727 98.8056 428.816 95.6936L509.528 14.3929C514.806 9.07662 511.073 0 503.607 0H95.0266C90.5212 0 86.2732 1.81531 83.1837 4.9273L2.47177 86.228C-2.80605 91.5443 0.927039 100.621 8.39322 100.621H204.779V100.719Z" fill="url(#paint1_linear_475_1150)"/>
<defs>
<linearGradient id="paint0_linear_475_1150" x1="181.746" y1="1.081e-05" x2="-138.437" y2="300.495" gradientUnits="userSpaceOnUse">
<stop stop-color="#00FFA3"/>
<stop offset="1" stop-color="#DC1FFF"/>
</linearGradient>
<linearGradient id="paint1_linear_475_1150" x1="181.746" y1="1.081e-05" x2="-138.437" y2="300.495" gradientUnits="userSpaceOnUse">
<stop stop-color="#00FFA3"/>
<stop offset="1" stop-color="#DC1FFF"/>
</linearGradient>
</defs>
</svg>
