<svg width="20" height="20" viewBox="0 0 20 20" fill="none" xmlns="http://www.w3.org/2000/svg">
<path d="M11.1206 17.0972L10.2678 17.9499C9.90675 18.311 9.32289 18.311 8.96566 17.9499L1.49834 10.4865C1.13727 10.1254 1.13727 9.54152 1.49834 9.18428L8.96566 1.71697C9.32673 1.3559 9.91059 1.3559 10.2678 1.71697L11.1206 2.56972C11.4855 2.93464 11.4778 3.53002 11.1052 3.88726L6.47655 8.29696H17.5162C18.0271 8.29696 18.4381 8.70797 18.4381 9.21886V10.448C18.4381 10.9589 18.0271 11.3699 17.5162 11.3699H6.47655L11.1052 15.7796C11.4816 16.1369 11.4893 16.7323 11.1206 17.0972Z" fill="white"/>
</svg>
