<svg width="13" height="13" viewBox="0 0 13 13" fill="none" xmlns="http://www.w3.org/2000/svg">
<path fill-rule="evenodd" clip-rule="evenodd" d="M2.85941 2.09998C2.42469 2.09998 2.07227 2.45815 2.07227 2.89998V10.1C2.07227 10.5418 2.42469 10.9 2.85941 10.9H9.94375C10.3785 10.9 10.7309 10.5418 10.7309 10.1V7.29998C10.7309 7.07906 10.5547 6.89998 10.3373 6.89998C10.12 6.89998 9.94375 7.07906 9.94375 7.29998V10.1H2.85941V2.89998H5.61443C5.8318 2.89998 6.00801 2.72089 6.00801 2.49998C6.00801 2.27906 5.8318 2.09998 5.61443 2.09998H2.85941ZM10.6157 2.21714C10.6534 2.25549 10.6819 2.29969 10.7011 2.34686C10.72 2.39333 10.7306 2.44422 10.7309 2.49758V2.49998V4.89998C10.7309 5.12089 10.5547 5.29998 10.3373 5.29998C10.12 5.29998 9.94375 5.12089 9.94375 4.89998V3.46566L5.89273 7.58282C5.73903 7.73903 5.48984 7.73903 5.33614 7.58282C5.18243 7.42661 5.18243 7.17334 5.33614 7.01714L9.38716 2.89998H7.97588C7.75852 2.89998 7.58231 2.72089 7.58231 2.49998C7.58231 2.27906 7.75852 2.09998 7.97588 2.09998H10.3372C10.3906 2.09998 10.4415 2.11077 10.488 2.13033C10.5344 2.14985 10.5779 2.17878 10.6157 2.21714Z" fill="#627EEA" stroke="#627EEA"/>
</svg>
