<svg width="24" height="24" viewBox="0 0 24 24" fill="none" xmlns="http://www.w3.org/2000/svg">
<path d="M24 12C24 18.629 18.629 24 12 24C5.37097 24 -1.7347e-07 18.629 -1.11742e-07 12C-5.00136e-08 5.37097 5.37097 0 12 0C18.629 0 24 5.37097 24 12ZM17.0516 10.6016L13.5484 14.2548L13.5484 5.41935C13.5484 4.77581 13.0306 4.25806 12.3871 4.25806H11.6129C10.9694 4.25806 10.4516 4.77581 10.4516 5.41935L10.4516 14.2548L6.94839 10.6016C6.49839 10.1323 5.74839 10.1226 5.28871 10.5823L4.76129 11.1145C4.30645 11.5694 4.30645 12.3048 4.76129 12.7548L11.1774 19.1758C11.6323 19.6306 12.3677 19.6306 12.8177 19.1758L19.2387 12.7548C19.6935 12.3 19.6935 11.5645 19.2387 11.1145L18.7113 10.5823C18.2516 10.1226 17.5016 10.1323 17.0516 10.6016Z" fill="#61A179"/>
</svg>
