<svg width="24" height="24" viewBox="0 0 24 24" fill="none" xmlns="http://www.w3.org/2000/svg">
<path d="M1.11161e-06 12C1.72568e-06 5.37097 5.37097 -1.53698e-06 12 -9.90058e-07C18.629 -4.43131e-07 24 5.37097 24 12C24 18.629 18.629 24 12 24C5.37097 24 4.97534e-07 18.629 1.11161e-06 12ZM6.94839 13.3984L10.4516 9.74516L10.4516 18.5806C10.4516 19.2242 10.9694 19.7419 11.6129 19.7419L12.3871 19.7419C13.0306 19.7419 13.5484 19.2242 13.5484 18.5806L13.5484 9.74516L17.0516 13.3984C17.5016 13.8677 18.2516 13.8774 18.7113 13.4177L19.2387 12.8855C19.6935 12.4306 19.6935 11.6952 19.2387 11.2452L12.8226 4.82419C12.3677 4.36936 11.6323 4.36936 11.1823 4.82419L4.76129 11.2452C4.30645 11.7 4.30645 12.4355 4.76129 12.8855L5.28871 13.4177C5.74839 13.8774 6.49839 13.8677 6.94839 13.3984Z" fill="#CF3830"/>
</svg>
