<svg width="16" height="17" viewBox="0 0 16 17" fill="none" xmlns="http://www.w3.org/2000/svg">
<path d="M7.10187 2.63518L7.77619 1.96242C8.06172 1.67756 8.52342 1.67756 8.8059 1.96242L14.7108 7.85055C14.9963 8.13541 14.9963 8.59604 14.7108 8.87787L8.8059 14.769C8.52038 15.0539 8.05868 15.0539 7.77619 14.769L7.10187 14.0963C6.8133 13.8084 6.81938 13.3387 7.11402 13.0568L10.7742 9.5779H2.04443C1.64044 9.5779 1.31543 9.25364 1.31543 8.85059V7.88086C1.31543 7.47781 1.64044 7.15355 2.04443 7.15355H10.7742L7.11402 3.67462C6.81634 3.39279 6.81027 2.92307 7.10187 2.63518Z" fill="black"/>
</svg>
