<svg width="11" height="10" viewBox="0 0 11 10" fill="none" xmlns="http://www.w3.org/2000/svg">
<path d="M6.08749 3.92857V3.95299H6.1119H9.34762C9.73134 3.95299 10.0423 4.26207 10.0423 4.64286V5.35714C10.0423 5.73793 9.73134 6.04701 9.34762 6.04701H6.1119H6.08749V6.07143V9.28571C6.08749 9.6665 5.77658 9.97559 5.39286 9.97559H4.67381C4.29009 9.97559 3.97918 9.6665 3.97918 9.28571V6.07143V6.04701H3.95476H0.719048C0.335329 6.04701 0.0244141 5.73793 0.0244141 5.35714V4.64286C0.0244141 4.26207 0.335329 3.95299 0.719048 3.95299H3.95476H3.97918V3.92857V0.714286C3.97918 0.333502 4.29009 0.0244141 4.67381 0.0244141H5.39286C5.77658 0.0244141 6.08749 0.333502 6.08749 0.714286V3.92857Z" fill="#627EEA" stroke="#627EEA" stroke-width="0.0488281"/>
</svg>
