<svg width="25" height="25" viewBox="0 0 25 25" fill="none" xmlns="http://www.w3.org/2000/svg">
<path d="M14.8569 9.56126V9.62084H14.9164H22.8134C23.75 9.62084 24.5087 10.3732 24.5087 11.2997V13.0381C24.5087 13.9646 23.75 14.7169 22.8134 14.7169H14.9164H14.8569V14.7765V22.5993C14.8569 23.5258 14.0982 24.2782 13.1616 24.2782H11.4067C10.47 24.2782 9.71139 23.5258 9.71139 22.5993V14.7765V14.7169H9.65181H1.75487C0.818231 14.7169 0.0595839 13.9646 0.0595839 13.0381V11.2997C0.0595839 10.3732 0.818231 9.62084 1.75487 9.62084H9.65181H9.71139V9.56126V1.73841C9.71139 0.811918 10.47 0.0595839 11.4067 0.0595839H13.1616C14.0982 0.0595839 14.8569 0.811918 14.8569 1.73841V9.56126Z" fill="#03178C" stroke="#03178C" stroke-width="0.119168"/>
</svg>
