<svg width="27" height="28" viewBox="0 0 27 28" fill="none" xmlns="http://www.w3.org/2000/svg">
<path d="M26.3079 23.7663L21.1374 18.5957C20.904 18.3624 20.5877 18.2327 20.2558 18.2327H19.4104C20.8418 16.402 21.6923 14.0994 21.6923 11.5945C21.6923 5.63569 16.8641 0.807434 10.9052 0.807434C4.94642 0.807434 0.118164 5.63569 0.118164 11.5945C0.118164 17.5533 4.94642 22.3816 10.9052 22.3816C13.4101 22.3816 15.7127 21.5311 17.5434 20.0997V20.945C17.5434 21.2769 17.6731 21.5933 17.9065 21.8267L23.077 26.9972C23.5645 27.4847 24.3528 27.4847 24.8351 26.9972L26.3027 25.5295C26.7902 25.042 26.7902 24.2538 26.3079 23.7663ZM10.9052 18.2327C7.23867 18.2327 4.26704 15.2663 4.26704 11.5945C4.26704 7.92794 7.23348 4.95631 10.9052 4.95631C14.5718 4.95631 17.5434 7.92275 17.5434 11.5945C17.5434 15.2611 14.577 18.2327 10.9052 18.2327Z" fill="#FAF1E4"/>
</svg>
