<svg width="28" height="26" viewBox="0 0 28 26" fill="none" xmlns="http://www.w3.org/2000/svg">
<path d="M26.9038 22.2949L21.7794 17.3313C21.5481 17.1073 21.2346 16.9828 20.9056 16.9828H20.0678C21.4864 15.2254 22.3293 13.0149 22.3293 10.6103C22.3293 4.88992 17.5442 0.254883 11.6385 0.254883C5.73291 0.254883 0.947754 4.88992 0.947754 10.6103C0.947754 16.3306 5.73291 20.9657 11.6385 20.9657C14.1211 20.9657 16.4031 20.1492 18.2175 18.7751V19.5866C18.2175 19.9052 18.346 20.2089 18.5773 20.433L23.7017 25.3966C24.1848 25.8646 24.9661 25.8646 25.4441 25.3966L26.8986 23.9876C27.3818 23.5197 27.3818 22.7629 26.9038 22.2949ZM11.6385 16.9828C8.0047 16.9828 5.0596 14.1351 5.0596 10.6103C5.0596 7.09044 7.99956 4.23773 11.6385 4.23773C15.2724 4.23773 18.2175 7.08546 18.2175 10.6103C18.2175 14.1301 15.2775 16.9828 11.6385 16.9828Z" fill="#F7F7F7"/>
</svg>
