<svg width="38" height="38" viewBox="0 0 38 38" fill="none" xmlns="http://www.w3.org/2000/svg">
<path d="M17.2669 37.7829C16.8014 37.7829 16.4076 37.6516 16.0853 37.389C15.775 37.1383 15.5601 36.7803 15.4408 36.3148L14.5098 32.376C14.1636 32.2566 13.8235 32.1313 13.4893 32C13.1551 31.8687 12.8388 31.7314 12.5404 31.5882L9.10286 33.7008C8.70898 33.9396 8.30317 34.041 7.88542 34.0052C7.4796 33.9694 7.11556 33.7904 6.79329 33.4681L4.50163 31.1764C4.17936 30.8542 3.99436 30.4782 3.94661 30.0485C3.91081 29.6188 4.0242 29.213 4.28678 28.8311L6.38151 25.4115C6.23828 25.1011 6.10102 24.7848 5.96973 24.4626C5.83843 24.1403 5.72504 23.818 5.62956 23.4958L1.65495 22.5469C1.18945 22.4395 0.83138 22.2306 0.580729 21.9202C0.330078 21.598 0.204752 21.2041 0.204752 20.7386V17.498C0.204752 17.0445 0.330078 16.6625 0.580729 16.3522C0.83138 16.0299 1.18945 15.8151 1.65495 15.7077L5.59375 14.7588C5.70117 14.3888 5.82053 14.0426 5.95182 13.7204C6.09505 13.3981 6.22634 13.0938 6.3457 12.8073L4.25098 9.33399C4.00033 8.94011 3.88694 8.54026 3.91081 8.13444C3.94661 7.72863 4.13162 7.36459 4.46582 7.04232L6.79329 4.73275C7.11556 4.41048 7.47363 4.22548 7.86751 4.17774C8.26139 4.12999 8.65527 4.22548 9.04915 4.46419L12.5225 6.61263C12.8209 6.45747 13.1372 6.31424 13.4714 6.18294C13.8175 6.03972 14.1636 5.90842 14.5098 5.78906L15.4408 1.83236C15.5601 1.3788 15.775 1.02073 16.0853 0.75814C16.4076 0.495553 16.8014 0.36426 17.2669 0.36426H20.5612C21.0267 0.36426 21.4146 0.495553 21.7249 0.75814C22.0472 1.02073 22.262 1.3788 22.3695 1.83236L23.3005 5.82487C23.6705 5.94423 24.0166 6.06955 24.3389 6.20085C24.6731 6.33214 24.9834 6.47537 25.2699 6.63054L28.779 4.46419C29.1609 4.22548 29.5429 4.13596 29.9248 4.19564C30.3187 4.25532 30.6827 4.43436 31.0169 4.73275L33.3623 7.04232C33.6965 7.36459 33.8755 7.72863 33.8994 8.13444C33.9233 8.54026 33.8159 8.94011 33.5771 9.33399L31.4645 12.8073C31.5839 13.0938 31.7092 13.3981 31.8405 13.7204C31.9837 14.0426 32.115 14.3888 32.2344 14.7588L36.1732 15.7077C36.6267 15.8151 36.9788 16.0299 37.2295 16.3522C37.4921 16.6625 37.6234 17.0445 37.6234 17.498V20.7386C37.6234 21.2041 37.4921 21.598 37.2295 21.9202C36.9788 22.2306 36.6267 22.4395 36.1732 22.5469L32.1986 23.4958C32.0911 23.818 31.9718 24.1403 31.8405 24.4626C31.7211 24.7848 31.5839 25.1011 31.4287 25.4115L33.5413 28.8311C33.8039 29.213 33.9113 29.6188 33.8636 30.0485C33.8278 30.4782 33.6488 30.8542 33.3265 31.1764L31.0169 33.4681C30.6947 33.7904 30.3247 33.9694 29.9069 34.0052C29.5011 34.041 29.1072 33.9396 28.7253 33.7008L25.2699 31.5882C24.9715 31.7314 24.6552 31.8687 24.321 32C23.9868 32.1313 23.6466 32.2566 23.3005 32.376L22.3695 36.3148C22.262 36.7803 22.0472 37.1383 21.7249 37.389C21.4146 37.6516 21.0267 37.7829 20.5612 37.7829H17.2669ZM18.9141 25.3936C20.0718 25.3936 21.1281 25.1131 22.083 24.5521C23.0379 23.9792 23.8018 23.2153 24.3747 22.2604C24.9476 21.2936 25.234 20.2313 25.234 19.0736C25.234 17.9158 24.9476 16.8595 24.3747 15.9046C23.8018 14.9378 23.0379 14.1739 22.083 13.613C21.1281 13.04 20.0718 12.7536 18.9141 12.7536C17.7444 12.7536 16.6821 13.04 15.7272 13.613C14.7724 14.1739 14.0085 14.9378 13.4355 15.9046C12.8746 16.8595 12.5941 17.9158 12.5941 19.0736C12.5941 20.2313 12.8746 21.2936 13.4355 22.2604C14.0085 23.2153 14.7724 23.9792 15.7272 24.5521C16.6821 25.1131 17.7444 25.3936 18.9141 25.3936Z" fill="#435334"/>
</svg>
