<svg width="12" height="13" viewBox="0 0 12 13" fill="none" xmlns="http://www.w3.org/2000/svg">
<g clip-path="url(#clip0_551_2415)">
<path d="M8.65592 8.72972C8.28398 8.72972 7.93752 8.83786 7.64539 9.02379L4.69704 6.96538C4.74437 6.80014 4.77025 6.62585 4.77025 6.44545C4.77025 6.26501 4.74437 6.09072 4.69704 5.92552L7.5658 3.92265C7.8736 4.14128 8.24957 4.27028 8.65589 4.27028C9.69701 4.27028 10.541 3.42627 10.541 2.38515C10.541 1.34404 9.69703 0.5 8.65592 0.5C7.6148 0.5 6.77079 1.34401 6.77079 2.38513C6.77079 2.52262 6.78592 2.65654 6.81386 2.78566L3.87226 4.8394C3.58512 4.66255 3.24712 4.56032 2.88513 4.56032C1.84401 4.56032 1 5.40433 1 6.44545C1 7.48656 1.84399 8.33057 2.88513 8.33057C3.2471 8.33057 3.58512 8.22834 3.87226 8.05149L6.83657 10.1211C6.79395 10.2785 6.77079 10.444 6.77079 10.6149C6.77079 11.656 7.6148 12.5 8.65592 12.5C9.69703 12.5 10.541 11.656 10.541 10.6149C10.541 9.57376 9.69703 8.72972 8.65592 8.72972Z" fill="#F7F7F7"/>
</g>
<defs>
<clipPath id="clip0_551_2415">
<rect width="12" height="12" fill="white" transform="translate(0 0.5)"/>
</clipPath>
</defs>
</svg>
