<svg width="25" height="25" viewBox="0 0 25 25" fill="none" xmlns="http://www.w3.org/2000/svg">
<path d="M15.0975 12.5087L20.8201 6.78885C21.5386 6.07038 21.5386 4.91106 20.8201 4.19259C20.1017 3.47412 18.9423 3.47412 18.2239 4.19259L12.5012 9.91246L6.77995 4.1912C6.06148 3.47273 4.90216 3.47273 4.18369 4.1912C3.46522 4.90967 3.46522 6.06899 4.18369 6.78746L9.90635 12.5073L4.18369 18.2272C3.46522 18.9457 3.46522 20.105 4.18369 20.8235C4.90356 21.5419 6.06706 21.5419 6.77995 20.8235L12.5026 15.1036L18.2253 20.8235C18.9437 21.5419 20.1031 21.5419 20.8215 20.8235C21.5344 20.105 21.5344 18.9457 20.8145 18.2258L15.0975 12.5087Z" fill="white"/>
</svg>
