<svg width="20" height="23" viewBox="0 0 20 23" fill="none" xmlns="http://www.w3.org/2000/svg">
<path d="M1.84485 20.0385C1.84485 20.5883 2.06325 21.1155 2.45201 21.5043C2.84076 21.893 3.36802 22.1114 3.9178 22.1114H16.3555C16.9053 22.1114 17.4325 21.893 17.8213 21.5043C18.21 21.1155 18.4284 20.5883 18.4284 20.0385V5.52786H1.84485V20.0385ZM13.5915 8.98277C13.5915 8.79951 13.6643 8.62376 13.7939 8.49417C13.9235 8.36459 14.0993 8.29179 14.2825 8.29179C14.4658 8.29179 14.6415 8.36459 14.7711 8.49417C14.9007 8.62376 14.9735 8.79951 14.9735 8.98277V18.6565C14.9735 18.8398 14.9007 19.0155 14.7711 19.1451C14.6415 19.2747 14.4658 19.3475 14.2825 19.3475C14.0993 19.3475 13.9235 19.2747 13.7939 19.1451C13.6643 19.0155 13.5915 18.8398 13.5915 18.6565V8.98277ZM9.44566 8.98277C9.44566 8.79951 9.51846 8.62376 9.64804 8.49417C9.77762 8.36459 9.95338 8.29179 10.1366 8.29179C10.3199 8.29179 10.4957 8.36459 10.6252 8.49417C10.7548 8.62376 10.8276 8.79951 10.8276 8.98277V18.6565C10.8276 18.8398 10.7548 19.0155 10.6252 19.1451C10.4957 19.2747 10.3199 19.3475 10.1366 19.3475C9.95338 19.3475 9.77762 19.2747 9.64804 19.1451C9.51846 19.0155 9.44566 18.8398 9.44566 18.6565V8.98277ZM5.29976 8.98277C5.29976 8.79951 5.37256 8.62376 5.50215 8.49417C5.63173 8.36459 5.80749 8.29179 5.99075 8.29179C6.17401 8.29179 6.34976 8.36459 6.47934 8.49417C6.60893 8.62376 6.68173 8.79951 6.68173 8.98277V18.6565C6.68173 18.8398 6.60893 19.0155 6.47934 19.1451C6.34976 19.2747 6.17401 19.3475 5.99075 19.3475C5.80749 19.3475 5.63173 19.2747 5.50215 19.1451C5.37256 19.0155 5.29976 18.8398 5.29976 18.6565V8.98277ZM19.1194 1.38197H13.937L13.5311 0.574386C13.4451 0.401733 13.3126 0.256501 13.1486 0.155029C12.9846 0.0535562 12.7955 -0.000130767 12.6026 7.57175e-06H7.66638C7.47393 -0.000732234 7.28517 0.0527546 7.12171 0.15434C6.95826 0.255925 6.82673 0.4015 6.74219 0.574386L6.33624 1.38197H1.15387C0.970613 1.38197 0.794859 1.45477 0.665275 1.58436C0.53569 1.71394 0.462891 1.88969 0.462891 2.07295L0.462891 3.45492C0.462891 3.63818 0.53569 3.81393 0.665275 3.94352C0.794859 4.0731 0.970613 4.1459 1.15387 4.1459H19.1194C19.3027 4.1459 19.4784 4.0731 19.608 3.94352C19.7376 3.81393 19.8104 3.63818 19.8104 3.45492V2.07295C19.8104 1.88969 19.7376 1.71394 19.608 1.58436C19.4784 1.45477 19.3027 1.38197 19.1194 1.38197Z" fill="black"/>
</svg>
