<svg width="13" height="15" viewBox="0 0 13 15" fill="none" xmlns="http://www.w3.org/2000/svg">
<path d="M9.08646 2.43505L11.1222 5.07814C11.208 5.18949 11.208 5.37117 11.1222 5.48252L6.19306 11.8822L4.09861 12.184C3.81875 12.225 3.58177 11.9174 3.61337 11.554L3.84583 8.83473L8.775 2.43505C8.86076 2.3237 9.0007 2.3237 9.08646 2.43505ZM12.7427 1.76402L11.6413 0.33405C11.2983 -0.11135 10.7408 -0.11135 10.3955 0.33405L9.59653 1.37136C9.51076 1.48271 9.51076 1.66439 9.59653 1.77574L11.6323 4.41883C11.7181 4.53018 11.858 4.53018 11.9438 4.41883L12.7427 3.38152C13.0858 2.93319 13.0858 2.20942 12.7427 1.76402ZM8.66667 10.1416V13.1246H1.44444V3.7478H6.6309C6.70312 3.7478 6.77083 3.70971 6.82274 3.64524L7.72552 2.47314C7.89705 2.25044 7.77517 1.87244 7.53368 1.87244H1.08333C0.485243 1.87244 0 2.50244 0 3.27896V13.5935C0 14.37 0.485243 15 1.08333 15H9.02778C9.62587 15 10.1111 14.37 10.1111 13.5935V8.96953C10.1111 8.65599 9.81997 8.50068 9.64844 8.72045L8.74566 9.89256C8.69601 9.95995 8.66667 10.0479 8.66667 10.1416Z" fill="#627EEA"/>
</svg>
