<svg width="23" height="20" viewBox="0 0 23 20" fill="none" xmlns="http://www.w3.org/2000/svg">
<path d="M15.455 3.41855L18.9175 6.88114C19.0634 7.02701 19.0634 7.26501 18.9175 7.41089L10.5336 15.7948L6.97124 16.1902C6.49523 16.2439 6.09216 15.8409 6.1459 15.3649L6.5413 11.8025L14.9252 3.41855C15.0711 3.27267 15.3091 3.27267 15.455 3.41855ZM21.6738 2.53947L19.8005 0.666137C19.217 0.0826417 18.2688 0.0826417 17.6815 0.666137L16.3225 2.02507C16.1767 2.17094 16.1767 2.40895 16.3225 2.55482L19.7851 6.01741C19.931 6.16328 20.169 6.16328 20.3149 6.01741L21.6738 4.65848C22.2573 4.07114 22.2573 3.12296 21.6738 2.53947ZM14.7409 13.5146V17.4224H2.45682V5.13833H11.2784C11.4012 5.13833 11.5164 5.08842 11.6047 5.00397L13.1402 3.46845C13.4319 3.17671 13.2246 2.6815 12.8139 2.6815H1.84262C0.825339 2.6815 0 3.50684 0 4.52412V18.0367C0 19.0539 0.825339 19.8793 1.84262 19.8793H15.3552C16.3724 19.8793 17.1978 19.0539 17.1978 18.0367V11.979C17.1978 11.5683 16.7026 11.3648 16.4108 11.6528L14.8753 13.1883C14.7909 13.2766 14.7409 13.3917 14.7409 13.5146Z" fill="black"/>
</svg>
