<svg width="15" height="14" viewBox="0 0 15 14" fill="none" xmlns="http://www.w3.org/2000/svg">
<path d="M10.4844 2.27271L12.8333 4.7396C12.9323 4.84352 12.9323 5.01309 12.8333 5.11701L7.14583 11.0901L4.72917 11.3718C4.40625 11.41 4.13281 11.1229 4.16927 10.7837L4.4375 8.24575L10.125 2.27271C10.224 2.16878 10.3854 2.16878 10.4844 2.27271ZM14.7031 1.64642L13.4323 0.31178C13.0365 -0.103927 12.3932 -0.103927 11.9948 0.31178L11.0729 1.27994C10.974 1.38386 10.974 1.55343 11.0729 1.65736L13.4219 4.12424C13.5208 4.22817 13.6823 4.22817 13.7813 4.12424L14.7031 3.15609C15.099 2.73764 15.099 2.06212 14.7031 1.64642ZM10 9.46552V12.2497H1.66667V3.49795H7.65104C7.73438 3.49795 7.8125 3.4624 7.8724 3.40223L8.91406 2.30826C9.11198 2.10041 8.97135 1.74761 8.69271 1.74761H1.25C0.559896 1.74761 0 2.33561 0 3.06036V12.6872C0 13.412 0.559896 14 1.25 14H10.4167C11.1068 14 11.6667 13.412 11.6667 12.6872V8.37156C11.6667 8.07892 11.3307 7.93397 11.1328 8.13909L10.0911 9.23305C10.0339 9.29596 10 9.378 10 9.46552Z" fill="#627EEA"/>
</svg>
